<?xml version="1.0" encoding="iso-8859-1"?>
<!-- Generator: Adobe Illustrator 19.0.0, SVG Export Plug-In . SVG Version: 6.00 Build 0)  -->
<svg xmlns="http://www.w3.org/2000/svg" xmlns:xlink="http://www.w3.org/1999/xlink" version="1.1" id="Layer_1" x="0px" y="0px" viewBox="0 0 490.677 490.677" style="enable-background:new 0 0 490.677 490.677;" xml:space="preserve" width="512px" height="512px">
<g>
	<g>
		<path d="M316.891,301.808l-60.885-60.885V96.005c0-5.888-4.779-10.667-10.667-10.667s-10.667,4.779-10.667,10.667v149.333    c0,2.837,1.131,5.547,3.115,7.552l64,64c2.091,2.069,4.821,3.115,7.552,3.115s5.461-1.045,7.552-3.115    C321.051,312.731,321.051,305.968,316.891,301.808z" fill="#006DF0"/>
	</g>
</g>
<g>
	<g>
		<path d="M437.339,234.672c-5.888,0-10.667,4.779-10.667,10.667c0,99.989-81.344,181.333-181.333,181.333    c-75.84,0-144.256-48-170.24-119.424c-2.027-5.525-8.149-8.405-13.675-6.379c-5.547,2.027-8.405,8.149-6.379,13.675    c29.056,79.829,105.515,133.461,190.293,133.461c111.744,0,202.667-90.923,202.667-202.667    C448.005,239.451,443.227,234.672,437.339,234.672z" fill="#006DF0"/>
	</g>
</g>
<g>
	<g>
		<path d="M435.632,176.133C406.576,96.304,330.117,42.672,245.339,42.672c-111.744,0-202.667,90.923-202.667,202.667    c0,5.888,4.779,10.667,10.667,10.667s10.667-4.779,10.667-10.667c0-99.989,81.344-181.333,181.333-181.333    c75.84,0,144.256,48,170.24,119.424c2.005,5.547,8.149,8.384,13.675,6.379C434.8,187.781,437.659,181.659,435.632,176.133z" fill="#006DF0"/>
	</g>
</g>
<g>
	<g>
		<path d="M103.536,216.475c-4.16-4.16-10.923-4.16-15.083,0l-35.115,35.115l-35.136-35.115c-4.16-4.16-10.923-4.16-15.083,0    c-4.16,4.16-4.16,10.923,0,15.083l42.667,42.667c2.091,2.069,4.821,3.115,7.552,3.115s5.461-1.045,7.531-3.115l42.667-42.667    C107.696,227.397,107.696,220.635,103.536,216.475z" fill="#006DF0"/>
	</g>
</g>
<g>
	<g>
		<path d="M487.557,259.12l-42.667-42.667c-4.16-4.16-10.923-4.16-15.083,0l-42.667,42.667c-4.16,4.16-4.16,10.923,0,15.083    c4.16,4.16,10.923,4.16,15.083,0l35.115-35.115l35.115,35.136c2.091,2.069,4.821,3.115,7.552,3.115s5.461-1.045,7.552-3.136    C491.717,270.043,491.717,263.28,487.557,259.12z" fill="#006DF0"/>
	</g>
</g>
<g>
</g>
<g>
</g>
<g>
</g>
<g>
</g>
<g>
</g>
<g>
</g>
<g>
</g>
<g>
</g>
<g>
</g>
<g>
</g>
<g>
</g>
<g>
</g>
<g>
</g>
<g>
</g>
<g>
</g>
</svg>
