<?xml version="1.0" encoding="UTF-8"?>
<svg width="72px" height="49px" viewBox="0 0 72 49" version="1.1" xmlns="http://www.w3.org/2000/svg" xmlns:xlink="http://www.w3.org/1999/xlink">
    <!-- Generator: Sketch 44.1 (41455) - http://www.bohemiancoding.com/sketch -->
    <title>wb_cloudy - material</title>
    <desc>Created with Sketch.</desc>
    <defs>
        <linearGradient x1="50%" y1="0%" x2="50%" y2="50%" id="linearGradient-1">
            <stop stop-color="#000000" offset="0%"></stop>
            <stop stop-color="#FFFFFF" offset="100%"></stop>
        </linearGradient>
    </defs>
    <g id="Welcome" stroke="none" stroke-width="1" fill="none" fill-rule="evenodd">
        <g id="background" transform="translate(-171.000000, -70.000000)" fill="url(#linearGradient-1)">
            <path d="M228.808733,88.1245287 C231.339818,88.3163236 233.655965,89.0954787 235.757243,90.4620175 C237.858521,91.8285562 239.529967,93.6146196 240.771631,95.8202611 C242.013296,98.0259026 242.634118,100.423303 242.634118,103.012534 C242.634118,105.745612 241.96554,108.262882 240.628363,110.564421 C239.291186,112.86596 237.476473,114.687985 235.18417,116.030549 C232.891867,117.373113 230.384698,118.044386 227.662588,118.044386 L188.90853,118.044386 C185.6611,118.044386 182.664436,117.241256 179.918448,115.634974 C177.172459,114.028692 174.99958,111.847057 173.399743,109.090005 C171.799906,106.332953 171,103.324216 171,100.063702 C171,97.0429324 171.704395,94.2259869 173.113206,91.6127812 C174.522018,88.9995755 176.444181,86.8658891 178.879753,85.211658 C181.315325,83.5574269 184.013517,82.5625057 186.974408,82.2268646 C188.884661,78.5348125 191.582853,75.5860099 195.069064,73.3803684 C198.650788,71.1267782 202.566747,70 206.817059,70 C210.398783,70 213.741675,70.7911421 216.845836,72.3734502 C219.90224,73.9078095 222.481043,76.0534829 224.582321,78.8105348 C226.683598,81.5675866 228.092389,84.6722202 228.808733,88.1245287 Z" id="wb_cloudy---material"></path>
        </g>
    </g>
</svg>