<?xml version="1.0" encoding="UTF-8"?>
<svg width="72px" height="49px" viewBox="0 0 72 49" version="1.1" xmlns="http://www.w3.org/2000/svg" xmlns:xlink="http://www.w3.org/1999/xlink">
    <!-- Generator: Sketch 44.1 (41455) - http://www.bohemiancoding.com/sketch -->
    <title>wb_cloudy - material</title>
    <desc>Created with Sketch.</desc>
    <defs>
        <linearGradient x1="50%" y1="0%" x2="50%" y2="292.938149%" id="linearGradient-1">
            <stop stop-color="#000000" offset="0%"></stop>
            <stop stop-color="#FFFFFF" offset="100%"></stop>
        </linearGradient>
    </defs>
    <g id="Welcome" stroke="none" stroke-width="1" fill="none" fill-rule="evenodd">
        <g id="background" transform="translate(-124.000000, -160.000000)" fill="url(#linearGradient-1)">
            <path d="M181.808733,178.124529 C184.339818,178.316324 186.655965,179.095479 188.757243,180.462017 C190.858521,181.828556 192.529967,183.61462 193.771631,185.820261 C195.013296,188.025903 195.634118,190.423303 195.634118,193.012534 C195.634118,195.745612 194.96554,198.262882 193.628363,200.564421 C192.291186,202.86596 190.476473,204.687985 188.18417,206.030549 C185.891867,207.373113 183.384698,208.044386 180.662588,208.044386 L141.90853,208.044386 C138.6611,208.044386 135.664436,207.241256 132.918448,205.634974 C130.172459,204.028692 127.99958,201.847057 126.399743,199.090005 C124.799906,196.332953 124,193.324216 124,190.063702 C124,187.042932 124.704395,184.225987 126.113206,181.612781 C127.522018,178.999576 129.444181,176.865889 131.879753,175.211658 C134.315325,173.557427 137.013517,172.562506 139.974408,172.226865 C141.884661,168.534813 144.582853,165.58601 148.069064,163.380368 C151.650788,161.126778 155.566747,160 159.817059,160 C163.398783,160 166.741675,160.791142 169.845836,162.37345 C172.90224,163.907809 175.481043,166.053483 177.582321,168.810535 C179.683598,171.567587 181.092389,174.67222 181.808733,178.124529 Z" id="wb_cloudy---material"></path>
        </g>
    </g>
</svg>