<?xml version="1.0" encoding="UTF-8"?>
<svg width="72px" height="78px" viewBox="0 0 72 78" version="1.1" xmlns="http://www.w3.org/2000/svg" xmlns:xlink="http://www.w3.org/1999/xlink">
    <!-- Generator: Sketch 44.1 (41455) - http://www.bohemiancoding.com/sketch -->
    <title>cloud</title>
    <desc>Created with Sketch.</desc>
    <defs>
        <linearGradient x1="50%" y1="0%" x2="50%" y2="292.938149%" id="linearGradient-1">
            <stop stop-color="#000000" offset="0%"></stop>
            <stop stop-color="#FFFFFF" offset="100%"></stop>
        </linearGradient>
        <linearGradient x1="50%" y1="0%" x2="50%" y2="292.938149%" id="linearGradient-2">
            <stop stop-color="#2A20F6" offset="0%"></stop>
            <stop stop-color="#FFFFFF" offset="100%"></stop>
        </linearGradient>
    </defs>
    <g id="Welcome" stroke="none" stroke-width="1" fill="none" fill-rule="evenodd">
        <g id="background" transform="translate(-306.000000, -160.000000)">
            <g id="cloud" transform="translate(306.000000, 160.000000)">
                <polyline id="Line" stroke="#FFFFFF" stroke-linecap="square" points="14 45.1041526 14 43 20.3808047 55.61531 23.360782 45.1041526 26.7616095 45.1041526 25.7423791 55.3237809 26.7616095 49.2650225"></polyline>
                <path d="M55,43 C56.5054414,44.0297745 57.7418235,45.1925078 58.7091462,46.4881998 C59.676469,47.7838918 60.7311924,49.6900072 61.8733166,52.206546 C58.01774,54.7804753 55.7266345,56.2352889 55,56.570987 C55,58.7663688 56.2363821,63.0029979 58.7091462,69.2808743 L58.7091462,77.2050001" id="Line" stroke="#FFFFFF" stroke-linecap="square"></path>
                <path d="M7.48442301,39 C8.98986443,40.0297745 10.2262465,41.1925078 11.1935692,42.4881998 C12.160892,43.7838918 13.2156154,45.6900072 14.3577396,48.206546 C10.502163,50.7804753 8.21105752,52.2352889 7.48442301,52.570987 C7.48442301,54.7663688 8.72080508,59.0029979 11.1935692,65.2808743 L11.1935692,73.2050001" id="Line" stroke="#FFFFFF" stroke-linecap="square"></path>
                <path d="M33,43 C34.6699269,48.0647787 35.9053939,51.1336274 36.7064011,52.206546 C37.5074082,53.2794646 38.5630467,53.2794646 39.8733166,52.206546 C37.7306173,56.8148335 36.6749788,59.53431 36.7064011,60.3649755 C36.7535344,61.6109737 40.28876,59.6507957 39.8733166,60.3649755 C39.1540025,61.6015327 36.862897,62.8206458 33,64.022315 L39.8733166,77.2351758" id="Line" stroke="#FFFFFF" stroke-linecap="square"></path>
                <path d="M40,43 C41.6699269,48.0647787 42.9053939,51.1336274 43.7064011,52.206546 C44.5074082,53.2794646 45.5630467,53.2794646 46.8733166,52.206546 C44.7306173,56.8148335 43.6749788,59.53431 43.7064011,60.3649755 C43.7535344,61.6109737 47.28876,59.6507957 46.8733166,60.3649755 C46.1540025,61.6015327 43.862897,62.8206458 40,64.022315 L46.8733166,77.2351758" id="Line" stroke="#FFFFFF" stroke-linecap="square" transform="translate(43.453626, 60.117588) scale(-1, -1) translate(-43.453626, -60.117588) "></path>
                <path d="M19.854357,43 C21.5242839,48.0647787 22.7597509,51.1336274 23.5607581,52.206546 C24.3617652,53.2794646 25.4174038,53.2794646 26.7276736,52.206546 C24.5849743,56.8148335 23.5293358,59.53431 23.5607581,60.3649755 C23.6078915,61.6109737 27.143117,59.6507957 26.7276736,60.3649755 C26.0083595,61.6015327 23.717254,62.8206458 19.854357,64.022315 L26.7276736,77.2351758" id="Line" stroke="#FFFFFF" stroke-linecap="square"></path>
                <path d="M47.6083245,32 C49.2782514,37.0647787 50.5137184,40.1336274 51.3147256,41.206546 C52.1157328,42.2794646 53.1713713,42.2794646 54.4816411,41.206546 C52.3389419,45.8148335 51.2833033,48.53431 51.3147256,49.3649755 C51.361859,50.6109737 54.8970846,48.6507957 54.4816411,49.3649755 C53.7623271,50.6015327 51.4712215,51.8206458 47.6083245,53.022315 L54.4816411,66.2351758" id="Line" stroke="#FFFFFF" stroke-linecap="square"></path>
                <path d="M57.8087335,18.1245287 C60.3398183,18.3163236 62.655965,19.0954787 64.757243,20.4620175 C66.8585209,21.8285562 68.529967,23.6146196 69.7716312,25.8202611 C71.0132955,28.0259026 71.6341183,30.423303 71.6341183,33.0125344 C71.6341183,35.7456119 70.9655399,38.2628824 69.628363,40.5644213 C68.2911861,42.8659603 66.4764733,44.6879846 64.18417,46.030549 C61.8918668,47.3731134 59.3846977,48.0443855 56.6625876,48.0443855 L17.9085296,48.0443855 C14.6611,48.0443855 11.664436,47.2412564 8.91844773,45.634974 C6.17245947,44.0286916 3.99957961,41.8470572 2.39974296,39.0900053 C0.799906322,36.3329534 7.06931978e-15,33.3242158 0,30.0637023 C7.06931978e-15,27.0429324 0.70439512,24.2259869 2.11320649,21.6127812 C3.52201786,18.9995755 5.44418081,16.8658891 7.87975302,15.211658 C10.3153252,13.5574269 13.0135167,12.5625057 15.9744084,12.2268646 C17.8846611,8.5348125 20.5828526,5.58600994 24.0690638,3.38036844 C27.6507876,1.12677821 31.5667469,0 35.8170592,0 C39.398783,0 42.7416751,0.79114215 45.8458357,2.37345018 C48.9022401,3.90780949 51.4810425,6.05348289 53.5823205,8.81053477 C55.6835985,11.5675866 57.0923887,14.6722202 57.8087335,18.1245287 Z" id="wb_cloudy---material" fill="url(#linearGradient-1)"></path>
                <path d="M57.8087335,18.1245287 C60.3398183,18.3163236 62.655965,19.0954787 64.757243,20.4620175 C66.8585209,21.8285562 68.529967,23.6146196 69.7716312,25.8202611 C71.0132955,28.0259026 71.6341183,30.423303 71.6341183,33.0125344 C71.6341183,35.7456119 70.9655399,38.2628824 69.628363,40.5644213 C68.2911861,42.8659603 66.4764733,44.6879846 64.18417,46.030549 C61.8918668,47.3731134 59.3846977,48.0443855 56.6625876,48.0443855 L17.9085296,48.0443855 C14.6611,48.0443855 11.664436,47.2412564 8.91844773,45.634974 C6.17245947,44.0286916 3.99957961,41.8470572 2.39974296,39.0900053 C0.799906322,36.3329534 7.06931978e-15,33.3242158 0,30.0637023 C7.06931978e-15,27.0429324 0.70439512,24.2259869 2.11320649,21.6127812 C3.52201786,18.9995755 5.44418081,16.8658891 7.87975302,15.211658 C10.3153252,13.5574269 13.0135167,12.5625057 15.9744084,12.2268646 C17.8846611,8.5348125 20.5828526,5.58600994 24.0690638,3.38036844 C27.6507876,1.12677821 31.5667469,0 35.8170592,0 C39.398783,0 42.7416751,0.79114215 45.8458357,2.37345018 C48.9022401,3.90780949 51.4810425,6.05348289 53.5823205,8.81053477 C55.6835985,11.5675866 57.0923887,14.6722202 57.8087335,18.1245287 Z" id="wb_cloudy---material" fill="url(#linearGradient-2)"></path>
            </g>
        </g>
    </g>
</svg>