<?xml version="1.0" encoding="UTF-8"?>
<svg width="72px" height="49px" viewBox="0 0 72 49" version="1.1" xmlns="http://www.w3.org/2000/svg" xmlns:xlink="http://www.w3.org/1999/xlink">
    <!-- Generator: Sketch 44.1 (41455) - http://www.bohemiancoding.com/sketch -->
    <title>wb_cloudy - material</title>
    <desc>Created with Sketch.</desc>
    <defs></defs>
    <g id="Welcome" stroke="none" stroke-width="1" fill="none" fill-rule="evenodd">
        <g id="background" transform="translate(-64.000000, -94.000000)" fill="#FFFFFF">
            <path d="M121.808733,112.124529 C124.339818,112.316324 126.655965,113.095479 128.757243,114.462017 C130.858521,115.828556 132.529967,117.61462 133.771631,119.820261 C135.013296,122.025903 135.634118,124.423303 135.634118,127.012534 C135.634118,129.745612 134.96554,132.262882 133.628363,134.564421 C132.291186,136.86596 130.476473,138.687985 128.18417,140.030549 C125.891867,141.373113 123.384698,142.044386 120.662588,142.044386 L81.9085296,142.044386 C78.6611,142.044386 75.664436,141.241256 72.9184477,139.634974 C70.1724595,138.028692 67.9995796,135.847057 66.399743,133.090005 C64.7999063,130.332953 64,127.324216 64,124.063702 C64,121.042932 64.7043951,118.225987 66.1132065,115.612781 C67.5220179,112.999576 69.4441808,110.865889 71.879753,109.211658 C74.3153252,107.557427 77.0135167,106.562506 79.9744084,106.226865 C81.8846611,102.534813 84.5828526,99.5860099 88.0690638,97.3803684 C91.6507876,95.1267782 95.5667469,94 99.8170592,94 C103.398783,94 106.741675,94.7911421 109.845836,96.3734502 C112.90224,97.9078095 115.481043,100.053483 117.582321,102.810535 C119.683598,105.567587 121.092389,108.67222 121.808733,112.124529 Z" id="wb_cloudy---material"></path>
        </g>
    </g>
</svg>