<?xml version="1.0" encoding="UTF-8"?>
<svg width="1146px" height="750px" viewBox="0 0 1146 750" version="1.1" xmlns="http://www.w3.org/2000/svg" xmlns:xlink="http://www.w3.org/1999/xlink">
    <!-- Generator: Sketch 45.2 (43514) - http://www.bohemiancoding.com/sketch -->
    <title>cloudLines</title>
    <desc>Created with Sketch.</desc>
    <defs></defs>
    <g id="Welcome" stroke="none" stroke-width="1" fill="none" fill-rule="evenodd" stroke-linecap="square">
        <g id="Tablet" transform="translate(-249.000000, -1351.000000)" stroke-width="5">
            <g id="cloudLines" transform="translate(251.000000, 1353.000000)">
                <path d="M296.839232,223.090138 C339.682359,159.453397 374.779035,118.350731 402.129258,99.7821397 C485.185703,43.3935256 580.427427,35.0822593 621.696073,40.8303921 C658.389887,45.9413161 717.475218,59.6739896 770.426568,116.715656 C794.438386,142.582307 826.877255,208.997839 867.743175,315.962252 C930.313245,338.31037 971.857397,356.45447 992.375631,370.394554 C1054.44538,412.564725 1076.92839,461.2511 1083.46106,489.839685 C1089.90129,518.023754 1093.92197,576.066249 1054.91853,628.392292 C1041.46701,646.438516 1011.86372,674.059555 966.108681,711.255409 L249.158717,711.255409 C170.718419,669.272301 120.495654,637.428994 98.4904238,615.725489 C40.2170415,558.251121 41.1399798,489.241238 45.2809604,450.532594 C49.5190162,410.916519 70.5271112,345.05395 143.033127,298.050947 C168.678546,281.425958 219.947248,256.439022 296.839232,223.090138 Z" id="Line-3" stroke="#604EFF"></path>
                <path d="M971.415405,727.175581 L918.108163,727.175581 L252.90098,727.175581 C203.536479,717.691694 167.284235,704.008584 144.14425,686.126249 C70.4861662,629.204064 16.5413412,524.261631 19.2095678,482.070712 C21.8189186,440.810756 21.2641838,363.783204 99.4326562,296.068704 C125.719513,273.297357 188.410561,243.288144 287.505798,206.041065 C328.235671,140.022069 362.256779,97.0586419 389.569122,77.1507843 C461.707965,24.5690707 554.20252,12.2367508 596.335799,17.9057001 C638.417333,23.567687 721.982191,25.5270193 788.675654,96.6354391 C814.012057,123.649055 846.286839,186.937242 885.5,286.5 C1016.47566,348.451731 1085.97383,399.452185 1093.99451,439.501364 C1099.15562,465.272047 1129.27799,546.051906 1093.99451,615.01437 C1080.96174,640.487247 1040.10204,677.874317 971.415405,727.175581 Z" id="Line-2" stroke="#3009FF"></path>
                <path d="M976.89102,745.246887 L236.723028,745.246887 C168.451865,721.277725 122.184699,698.027104 97.9215288,675.495023 C32.8147384,615.033366 -1.39266219,509.18283 0.924925881,467.066106 C3.32259595,423.494079 11.3180695,347.893493 88.1614234,282.5 C114.130911,260.400034 173.19229,231.485537 265.345559,195.756509 C312.284471,124.804632 349.298204,79.482661 376.386758,59.7905968 C458.680091,-0.0326638515 547.202742,-3.60844358 595.038008,2.80331481 C642.003113,9.0984384 733.724078,15.527506 810.382555,94.1020784 C837.03068,121.416279 871.069828,184.215586 912.5,282.5 C985.791144,312.894035 1033.69955,337.328262 1056.22521,355.802682 C1117.21373,405.822409 1133.60392,464.963385 1138.06609,497.030874 C1142.10121,526.029308 1149.13796,591.376031 1112.09248,642.659113 C1094.3481,667.22314 1049.28095,701.419065 976.89102,745.246887 Z" id="Line" stroke="#5B25FF"></path>
            </g>
        </g>
    </g>
</svg>