<?xml version="1.0" encoding="UTF-8"?>
<svg width="61px" height="60px" viewBox="0 0 61 60" version="1.1" xmlns="http://www.w3.org/2000/svg" xmlns:xlink="http://www.w3.org/1999/xlink">
    <!-- Generator: Sketch 44.1 (41455) - http://www.bohemiancoding.com/sketch -->
    <title>Google_Color</title>
    <desc>Created with Sketch.</desc>
    <defs></defs>
    <g id="Page-1" stroke="none" stroke-width="1" fill="none" fill-rule="evenodd">
        <g id="Social_icons" transform="translate(-460.000000, -141.000000)">
            <g id="Color" transform="translate(60.000000, 60.000000)">
                <g id="Google" transform="translate(400.000000, 81.000000)">
                    <path d="M0,30 C0,13.4314567 13.4508663,0 30.0433526,0 C46.6358389,0 60.0867052,13.4314567 60.0867052,30 C60.0867052,46.5685433 46.6358389,60 30.0433526,60 C13.4508663,60 0,46.5685433 0,30 Z" id="back" fill="#FFFFFF"></path>
                    <g id="super-g" transform="translate(17.000000, 17.000000)">
                        <path d="M13,5.02666667 C15.4411111,5.02666667 17.0877778,6.08111111 18.0266667,6.96222222 L21.6955556,3.38 C19.4422222,1.28555556 16.51,0 13,0 C7.91555556,0 3.52444444,2.91777778 1.38666667,7.16444444 L5.59,10.4288889 C6.64444444,7.29444444 9.56222222,5.02666667 13,5.02666667 L13,5.02666667 Z" id="Shape" fill="#EA4335"></path>
                        <path d="M25.48,13.2888889 C25.48,12.22 25.3933333,11.44 25.2055556,10.6311111 L13,10.6311111 L13,15.4555556 L20.1644444,15.4555556 C20.02,16.6544444 19.24,18.46 17.5066667,19.6733333 L21.6088889,22.8511111 C24.0644444,20.5833333 25.48,17.2466667 25.48,13.2888889 L25.48,13.2888889 Z" id="Shape" fill="#4285F4"></path>
                        <path d="M5.60444444,15.5711111 C5.33,14.7622222 5.17111111,13.8955556 5.17111111,13 C5.17111111,12.1044444 5.33,11.2377778 5.59,10.4288889 L1.38666667,7.16444444 C0.505555556,8.92666667 0,10.9055556 0,13 C0,15.0944444 0.505555556,17.0733333 1.38666667,18.8355556 L5.60444444,15.5711111 L5.60444444,15.5711111 Z" id="Shape" fill="#FBBC05"></path>
                        <path d="M13,26 C16.51,26 19.4566667,24.8444444 21.6088889,22.8511111 L17.5066667,19.6733333 C16.4088889,20.4388889 14.9355556,20.9733333 13,20.9733333 C9.56222222,20.9733333 6.64444444,18.7055556 5.60444444,15.5711111 L1.40111111,18.8355556 C3.53888889,23.0822222 7.91555556,26 13,26 L13,26 Z" id="Shape" fill="#34A853"></path>
                        <polygon id="Shape" points="0 0 26 0 26 26 0 26"></polygon>
                    </g>
                </g>
            </g>
        </g>
    </g>
</svg>