<?xml version="1.0" ?><svg enable-background="new 0 0 512 512" id="Layer_1" version="1.1" viewBox="0 0 512 512" xml:space="preserve" xmlns="http://www.w3.org/2000/svg" xmlns:xlink="http://www.w3.org/1999/xlink"><g><g><linearGradient gradientUnits="userSpaceOnUse" id="SVGID_1_" x1="-0.0000027" x2="512" y1="256" y2="256"><stop offset="0" style="stop-color:#00AEEE"/><stop offset="1" style="stop-color:#0095DA"/></linearGradient><circle cx="256" cy="256" fill="url(#SVGID_1_)" r="256"/><linearGradient gradientUnits="userSpaceOnUse" id="SVGID_2_" x1="42.6666641" x2="469.3333435" y1="256.0005188" y2="256.0005188"><stop offset="0" style="stop-color:#0095DA"/><stop offset="1" style="stop-color:#00AEEE"/></linearGradient><path d="M256,469.3338623c-117.6314697,0-213.3333435-95.7018738-213.3333435-213.3333435    c0-117.6309204,95.7018661-213.333313,213.3333435-213.333313c117.6357422,0,213.3333435,95.7024002,213.3333435,213.333313    C469.3333435,373.6319885,373.6357422,469.3338623,256,469.3338623z" fill="url(#SVGID_2_)"/></g><g><rect height="10" opacity="0.3" width="59.7120018" x="234.1450653" y="374"/><rect height="10" opacity="0.3" width="78.8815994" x="224.5599976" y="353.4090576"/><path d="M260.0053406,144.0944061c-41.587738,1.9615936-75.9184113,35.883728-78.3546753,77.4458618    c-1.1514587,19.6373291,4.5914612,37.8629303,15.0186615,52.5370636    c13.9568024,19.6373291,22.9194794,42.3008118,24.6645355,66.1381226h85.2799988    c1.4949341-23.0037231,8.9338684-45.4378662,22.9706726-63.7738647    c10.6010742-13.8485107,16.9104004-31.1487885,16.9104004-49.9461212    C346.4949341,179.6096039,307.3824158,141.859726,260.0053406,144.0944061z" opacity="0.3"/></g><g><rect fill="#FFFFFF" height="10" width="59.7120018" x="226.1450653" y="366"/><rect fill="#FFFFFF" height="10" width="78.8815994" x="216.5599976" y="345.4090576"/><path d="M252.0053406,136.0944061c-41.587738,1.9615936-75.9184113,35.883728-78.3546753,77.4458618    c-1.1514587,19.6373291,4.5914612,37.8629303,15.0186615,52.5370636    c13.9568024,19.6373291,22.9194794,42.3008118,24.6645355,66.1381226h85.2799988    c1.4949341-23.0037231,8.9338684-45.4378662,22.9706726-63.7738647    c10.6010742-13.848526,16.9104004-31.1487885,16.9104004-49.9461212    C338.4949341,171.6096039,299.3823853,133.859726,252.0053406,136.0944061z" fill="#FFFFFF"/></g></g></svg>