<?xml version="1.0" encoding="UTF-8"?>
<svg width="349px" height="70px" viewBox="0 0 349 70" version="1.1" xmlns="http://www.w3.org/2000/svg" xmlns:xlink="http://www.w3.org/1999/xlink">
    <!-- Generator: Sketch 45.2 (43514) - http://www.bohemiancoding.com/sketch -->
    <title>Alexander Morton</title>
    <desc>Title for web developer site portfolio</desc>
    <defs></defs>
    <g id="Welcome" stroke="#001FF5" stroke-width="1" stroke-linecap="round" fill="none">
        <g id="Mobile-Copy">
            <path d="M196.78,402.49 C194.599989,403.590006 192.390011,403.770004 190.15,403.03 C187.769988,402.269996 185.720009,400.650012 184,398.17 C183.079995,396.849993 182.290003,395.320009 181.63,393.58 L180.67,391.03 L173.59,391.03 L172,394.81 C171.899999,395.070001 171.85,395.279999 171.85,395.44 C171.85,395.600001 171.885,395.774999 171.955,395.965 C172.025,396.155001 172.174999,396.324999 172.405,396.475 C172.635001,396.625001 172.889999,396.7 173.17,396.7 L173.41,396.7 L173.41,397 L166.99,397 L166.99,396.7 L167.26,396.7 C167.720002,396.7 168.174998,396.565001 168.625,396.295 C169.075002,396.024999 169.449998,395.620003 169.75,395.08 L176.44,379.81 C175.659996,378.049991 174.830004,376.840003 173.95,376.18 C173.209996,375.619997 172.505003,375.34 171.835,375.34 C171.164997,375.34 170.540003,375.439999 169.96,375.64 L169.9,375.34 C171.340007,374.599996 172.719993,374.23 174.04,374.23 C175.680008,374.23 177.149993,374.869994 178.45,376.15 C179.730006,377.410006 180.859995,379.229988 181.84,381.61 L186.19,392.35 C187.830008,396.41002 189.509991,399.199992 191.23,400.72 C191.930003,401.340003 192.649996,401.769999 193.39,402.01 C194.130004,402.250001 194.754997,402.37 195.265,402.37 C195.775003,402.37 196.269998,402.310001 196.75,402.19 L196.78,402.49 Z M174.1,389.74 L180.22,389.74 L178.12,384.19 C178.019999,383.909999 177.880001,383.525002 177.7,383.035 C177.519999,382.544998 177.4,382.200001 177.34,382 L174.1,389.74 Z M190.6,396.7 C191.120003,396.7 191.564998,396.515002 191.935,396.145 C192.305002,395.774998 192.5,395.330003 192.52,394.81 L192.52,378.19 C192.5,377.669997 192.305002,377.225002 191.935,376.855 C191.564998,376.484998 191.120003,376.3 190.6,376.3 L190.21,376.3 L190.21,376 L199.33,376 L199.3,376.3 L198.94,376.3 C198.419997,376.3 197.970002,376.484998 197.59,376.855 C197.209998,377.225002 197.02,377.669997 197.02,378.19 L197.02,395.71 L200.95,395.71 C202.410007,395.71 203.634995,395.290004 204.625,394.45 C205.615005,393.609996 206.349998,392.420008 206.83,390.88 L207.13,390.88 L205.75,397 L190.21,397 L190.21,396.7 L190.6,396.7 Z M208.9,396.7 C209.420003,396.7 209.864998,396.515002 210.235,396.145 C210.605002,395.774998 210.8,395.330003 210.82,394.81 L210.82,378.1 C210.76,377.399996 210.430003,376.880002 209.83,376.54 C209.529998,376.379999 209.220002,376.3 208.9,376.3 L208.51,376.3 L208.51,376 L220,376 C220.620003,376 221.299996,375.940001 222.04,375.82 C222.780004,375.699999 223.299998,375.580001 223.6,375.46 L223.6,380.71 L223.3,380.71 L223.3,380.35 C223.3,379.449995 223.035003,378.725003 222.505,378.175 C221.974997,377.624997 221.260004,377.33 220.36,377.29 L215.32,377.29 L215.32,386.02 L219.28,386.02 C220.020004,386 220.629998,385.745002 221.11,385.255 C221.590002,384.764998 221.83,384.160004 221.83,383.44 L221.83,383.17 L222.13,383.17 L222.13,390.1 L221.83,390.1 L221.83,389.86 C221.83,388.859995 221.430004,388.120002 220.63,387.64 C220.229998,387.419999 219.790002,387.3 219.31,387.28 L215.32,387.28 L215.32,395.71 L219.25,395.71 C220.710007,395.71 221.934995,395.290004 222.925,394.45 C223.915005,393.609996 224.649998,392.420008 225.13,390.88 L225.43,390.88 L224.05,397 L208.51,397 L208.51,396.7 L208.9,396.7 Z M239.05,396.7 C239.470002,396.7 239.809999,396.500002 240.07,396.1 C240.190001,395.879999 240.25,395.670001 240.25,395.47 C240.25,395.269999 240.190001,395.070001 240.07,394.87 L235.87,388.33 L231.46,394.84 C231.119998,395.440003 231.219997,395.959998 231.76,396.4 C232.000001,396.600001 232.249999,396.7 232.51,396.7 L232.9,396.7 L232.9,397 L225.49,397 L225.49,396.7 L225.91,396.7 C227.030006,396.7 228.019996,396.140006 228.88,395.02 L234.79,386.65 L229.24,378.07 C228.899998,377.569997 228.460003,377.150002 227.92,376.81 C227.379997,376.469998 226.810003,376.3 226.21,376.3 L225.79,376.3 L225.79,376 L235.99,376 L235.99,376.3 L235.6,376.3 C235.179998,376.3 234.840001,376.499998 234.58,376.9 C234.459999,377.120001 234.4,377.334999 234.4,377.545 C234.4,377.755001 234.449999,377.949999 234.55,378.13 L238.3,383.92 L241.99,378.16 C242.110001,377.959999 242.17,377.755001 242.17,377.545 C242.17,377.334999 242.100001,377.130001 241.96,376.93 C241.699999,376.509998 241.360002,376.3 240.94,376.3 L240.55,376.3 L240.55,376 L247.93,376 L247.93,376.3 L247.51,376.3 C246.909997,376.3 246.350003,376.464998 245.83,376.795 C245.309997,377.125002 244.870002,377.539998 244.51,378.04 L239.41,385.63 L245.44,394.96 C245.780002,395.460002 246.224997,395.874998 246.775,396.205 C247.325003,396.535002 247.889997,396.7 248.47,396.7 L248.89,396.7 L248.89,397 L238.66,397 L238.66,396.7 L239.05,396.7 Z M270.19,396.7 L270.46,396.7 L270.46,397 L260.89,397 L260.89,396.7 L261.16,396.7 C261.600002,396.7 261.924999,396.565001 262.135,396.295 C262.345001,396.024999 262.45,395.770001 262.45,395.53 C262.45,395.289999 262.4,395.050001 262.3,394.81 L260.83,391.12 L253.81,391.12 L252.25,394.81 C252.149999,395.070001 252.1,395.314999 252.1,395.545 C252.1,395.775001 252.204999,396.024999 252.415,396.295 C252.625001,396.565001 252.959998,396.7 253.42,396.7 L253.66,396.7 L253.66,397 L247.24,397 L247.24,396.7 L247.51,396.7 C247.970002,396.7 248.429998,396.560001 248.89,396.28 C249.350002,395.999999 249.729998,395.580003 250.03,395.02 L256.96,379.33 C257.900005,377.34999 258.4,376.040003 258.46,375.4 L258.73,375.4 L267.64,394.96 C267.940001,395.540003 268.319998,395.974999 268.78,396.265 C269.240002,396.555001 269.709998,396.7 270.19,396.7 Z M254.32,389.86 L260.32,389.86 L257.41,382.48 L254.32,389.86 Z M294.04,376.3 C293.539997,376.3 293.110002,376.474998 292.75,376.825 C292.389998,377.175002 292.2,377.599997 292.18,378.1 L292.18,393.58 C292.18,394.920007 292.269999,396.049995 292.45,396.97 L292.54,397.42 L292.27,397.42 L277.12,382.99 L277.12,394.9 C277.12,395.400003 277.299998,395.824998 277.66,396.175 C278.020002,396.525002 278.449997,396.7 278.95,396.7 L279.52,396.7 L279.52,397 L270.43,397 L270.43,396.7 L270.97,396.7 C271.490003,396.7 271.929998,396.525002 272.29,396.175 C272.650002,395.824998 272.83,395.390003 272.83,394.87 L272.83,379.3 C272.83,377.979993 272.740001,376.880004 272.56,376 L272.5,375.55 L272.77,375.55 L287.92,389.98 L287.92,378.13 C287.9,377.609997 287.710002,377.175002 287.35,376.825 C286.989998,376.474998 286.560002,376.3 286.06,376.3 L285.52,376.3 L285.52,376 L294.61,376 L294.61,376.3 L294.04,376.3 Z M315.91,378.82 C317.97001,380.700009 319,383.259984 319,386.5 C319,389.740016 317.97001,392.299991 315.91,394.18 C313.84999,396.060009 311.050018,397 307.51,397 L296.62,397 L296.62,396.7 L297.01,396.7 C297.530003,396.7 297.974998,396.515002 298.345,396.145 C298.715002,395.774998 298.91,395.330003 298.93,394.81 L298.93,378.01 C298.87,377.529998 298.660002,377.125002 298.3,376.795 C297.939998,376.464998 297.510002,376.3 297.01,376.3 L296.62,376.3 L296.62,376 L307.51,376 C311.050018,376 313.84999,376.939991 315.91,378.82 Z M307.12,395.74 C308.560007,395.74 309.804995,395.365004 310.855,394.615 C311.905005,393.864996 312.709997,392.795007 313.27,391.405 C313.830003,390.014993 314.11,388.380009 314.11,386.5 C314.11,383.659986 313.485006,381.410008 312.235,379.75 C310.984994,378.089992 309.280011,377.26 307.12,377.26 L303.43,377.26 L303.43,395.74 L307.12,395.74 Z M321.25,396.7 C321.770003,396.7 322.214998,396.515002 322.585,396.145 C322.955002,395.774998 323.15,395.330003 323.17,394.81 L323.17,378.1 C323.11,377.399996 322.780003,376.880002 322.18,376.54 C321.879998,376.379999 321.570002,376.3 321.25,376.3 L320.86,376.3 L320.86,376 L332.35,376 C332.970003,376 333.649996,375.940001 334.39,375.82 C335.130004,375.699999 335.649998,375.580001 335.95,375.46 L335.95,380.71 L335.65,380.71 L335.65,380.35 C335.65,379.449995 335.385003,378.725003 334.855,378.175 C334.324997,377.624997 333.610004,377.33 332.71,377.29 L327.67,377.29 L327.67,386.02 L331.63,386.02 C332.370004,386 332.979998,385.745002 333.46,385.255 C333.940002,384.764998 334.18,384.160004 334.18,383.44 L334.18,383.17 L334.48,383.17 L334.48,390.1 L334.18,390.1 L334.18,389.86 C334.18,388.859995 333.780004,388.120002 332.98,387.64 C332.579998,387.419999 332.140002,387.3 331.66,387.28 L327.67,387.28 L327.67,395.71 L331.6,395.71 C333.060007,395.71 334.284995,395.290004 335.275,394.45 C336.265005,393.609996 336.999998,392.420008 337.48,390.88 L337.78,390.88 L336.4,397 L320.86,397 L320.86,396.7 L321.25,396.7 Z M348.85,377.32 L346.57,377.32 L346.57,394.81 C346.59,395.550004 346.909997,396.099998 347.53,396.46 C347.830001,396.620001 348.149998,396.7 348.49,396.7 L348.88,396.7 L348.88,397 L339.76,397 L339.76,396.7 L340.15,396.7 C340.870004,396.7 341.419998,396.390003 341.8,395.77 C341.960001,395.489999 342.05,395.180002 342.07,394.84 L342.07,378.19 C342.05,377.669997 341.855002,377.225002 341.485,376.855 C341.114998,376.484998 340.670003,376.3 340.15,376.3 L339.76,376.3 L339.76,376 L350.05,376 C351.99001,376 353.629993,376.419996 354.97,377.26 C355.650003,377.680002 356.189998,378.264996 356.59,379.015 C356.990002,379.765004 357.19,380.614995 357.19,381.565 C357.19,382.515005 357.025002,383.389996 356.695,384.19 C356.364998,384.990004 355.815004,385.689997 355.045,386.29 C354.274996,386.890003 353.350005,387.249999 352.27,387.37 C353.430006,387.750002 354.449996,388.629993 355.33,390.01 C357.490011,393.470017 359.089995,395.529997 360.13,396.19 C360.650003,396.510002 361.299996,396.68 362.08,396.7 L362.08,397 L359.14,397 C357.439991,397 356.020006,396.765002 354.88,396.295 C353.739994,395.824998 352.810004,395.020006 352.09,393.88 C351.729998,393.299997 351.270003,392.425006 350.71,391.255 C350.149997,390.084994 349.780001,389.250002 349.6,388.75 C349.059997,387.549994 348.380004,386.880001 347.56,386.74 L347.56,386.44 L348.49,386.44 C349.390004,386.44 350.184997,386.170003 350.875,385.63 C351.565003,385.089997 352.029999,384.210006 352.27,382.99 C352.35,382.569998 352.39,382.240001 352.39,382 C352.39,380.359992 352.060003,379.175004 351.4,378.445 C350.739997,377.714996 349.890005,377.34 348.85,377.32 Z M365.41,374.02 C366.550006,373.539998 367.539996,373.3 368.38,373.3 C369.220004,373.3 369.959997,373.379999 370.6,373.54 C371.240003,373.700001 371.894997,373.964998 372.565,374.335 C373.235003,374.705002 373.859997,375.159997 374.44,375.7 C375.560006,376.760005 376.509996,377.959993 377.29,379.3 L383.29,390.55 L391.99,375.58 L392.26,375.58 L395.38,393.22 C395.860002,395.940014 396.689994,398.099992 397.87,399.7 C399.050006,401.320008 400.66999,402.13 402.73,402.13 L403.12,402.13 L403.12,402.43 C402.019994,402.730002 400.940005,402.88 399.88,402.88 C397.719989,402.88 395.750009,402.030009 393.97,400.33 C392.249991,398.709992 391.080003,396.340016 390.46,393.22 L388.99,384.49 L383.35,394.27 C382.589996,395.530006 382.2,396.639995 382.18,397.6 L381.91,397.6 L374.44,383.44 L372.97,395.44 C372.91,395.900002 373.109998,396.269999 373.57,396.55 C373.750001,396.670001 373.939999,396.73 374.14,396.73 L374.62,396.73 L374.62,397 L368.35,397 L368.35,396.7 L368.83,396.7 C369.350003,396.7 369.814998,396.545002 370.225,396.235 C370.635002,395.924998 370.889999,395.500003 370.99,394.96 L373.03,380.65 C372.129995,379.049992 371.100006,377.630006 369.94,376.39 C368.639993,374.989993 367.280007,374.29 365.86,374.29 C365.719999,374.29 365.590001,374.3 365.47,374.32 L365.41,374.02 Z M410.53,375.58 C414.230018,375.58 417.169989,376.55999 419.35,378.52 C421.530011,380.48001 422.62,383.139983 422.62,386.5 C422.62,389.860017 421.530011,392.51999 419.35,394.48 C417.169989,396.44001 414.230018,397.42 410.53,397.42 C406.829981,397.42 403.890011,396.44001 401.71,394.48 C399.529989,392.51999 398.44,389.860017 398.44,386.5 C398.44,384.279989 398.934995,382.345008 399.925,380.695 C400.915005,379.044992 402.319991,377.780004 404.14,376.9 C405.960009,376.019996 408.089988,375.58 410.53,375.58 Z M410.53,396.16 C412.730011,396.16 414.474994,395.295009 415.765,393.565 C417.055006,391.834991 417.7,389.480015 417.7,386.5 C417.7,384.53999 417.410003,382.830007 416.83,381.37 C416.249997,379.909993 415.420005,378.790004 414.34,378.01 C413.259995,377.229996 411.990007,376.84 410.53,376.84 C408.329989,376.84 406.585006,377.704991 405.295,379.435 C404.004994,381.165009 403.36,383.519985 403.36,386.5 C403.36,389.480015 404.004994,391.834991 405.295,393.565 C406.585006,395.295009 408.329989,396.16 410.53,396.16 Z M433.54,377.32 L431.26,377.32 L431.26,394.81 C431.28,395.550004 431.599997,396.099998 432.22,396.46 C432.520001,396.620001 432.839998,396.7 433.18,396.7 L433.57,396.7 L433.57,397 L424.45,397 L424.45,396.7 L424.84,396.7 C425.560004,396.7 426.109998,396.390003 426.49,395.77 C426.650001,395.489999 426.74,395.180002 426.76,394.84 L426.76,378.19 C426.74,377.669997 426.545002,377.225002 426.175,376.855 C425.804998,376.484998 425.360003,376.3 424.84,376.3 L424.45,376.3 L424.45,376 L434.74,376 C436.68001,376 438.319993,376.419996 439.66,377.26 C440.340003,377.680002 440.879998,378.264996 441.28,379.015 C441.680002,379.765004 441.88,380.614995 441.88,381.565 C441.88,382.515005 441.715002,383.389996 441.385,384.19 C441.054998,384.990004 440.505004,385.689997 439.735,386.29 C438.964996,386.890003 438.040005,387.249999 436.96,387.37 C438.120006,387.750002 439.139996,388.629993 440.02,390.01 C442.180011,393.470017 443.779995,395.529997 444.82,396.19 C445.340003,396.510002 445.989996,396.68 446.77,396.7 L446.77,397 L443.83,397 C442.129991,397 440.710006,396.765002 439.57,396.295 C438.429994,395.824998 437.500004,395.020006 436.78,393.88 C436.419998,393.299997 435.960003,392.425006 435.4,391.255 C434.839997,390.084994 434.470001,389.250002 434.29,388.75 C433.749997,387.549994 433.070004,386.880001 432.25,386.74 L432.25,386.44 L433.18,386.44 C434.080004,386.44 434.874997,386.170003 435.565,385.63 C436.255003,385.089997 436.719999,384.210006 436.96,382.99 C437.04,382.569998 437.08,382.240001 437.08,382 C437.08,380.359992 436.750003,379.175004 436.09,378.445 C435.429997,377.714996 434.580005,377.34 433.54,377.32 Z M456.64,377.23 L456.64,394.84 C456.66,395.360003 456.854998,395.799998 457.225,396.16 C457.595002,396.520002 458.039997,396.7 458.56,396.7 L458.92,396.7 L458.95,397 L449.83,397 L449.83,396.7 L450.22,396.7 C450.720002,396.7 451.154998,396.520002 451.525,396.16 C451.895002,395.799998 452.1,395.370002 452.14,394.87 L452.14,377.23 L448.09,377.23 C447.169995,377.25 446.440003,377.539997 445.9,378.1 C445.359997,378.660003 445.09,379.389995 445.09,380.29 L445.09,380.65 L444.79,380.65 L444.79,375.43 C445.070001,375.550001 445.574996,375.669999 446.305,375.79 C447.035004,375.910001 447.709997,375.97 448.33,375.97 L460.42,375.97 C461.400005,375.95 462.199997,375.870001 462.82,375.73 C463.440003,375.589999 463.819999,375.49 463.96,375.43 L463.96,380.65 L463.66,380.65 L463.66,380.29 C463.66,379.389995 463.390003,378.660003 462.85,378.1 C462.309997,377.539997 461.580005,377.25 460.66,377.23 L456.64,377.23 Z M477.25,375.58 C480.950018,375.58 483.889989,376.55999 486.07,378.52 C488.250011,380.48001 489.34,383.139983 489.34,386.5 C489.34,389.860017 488.250011,392.51999 486.07,394.48 C483.889989,396.44001 480.950018,397.42 477.25,397.42 C473.549981,397.42 470.610011,396.44001 468.43,394.48 C466.249989,392.51999 465.16,389.860017 465.16,386.5 C465.16,384.279989 465.654995,382.345008 466.645,380.695 C467.635005,379.044992 469.039991,377.780004 470.86,376.9 C472.680009,376.019996 474.809988,375.58 477.25,375.58 Z M477.25,396.16 C479.450011,396.16 481.194994,395.295009 482.485,393.565 C483.775006,391.834991 484.42,389.480015 484.42,386.5 C484.42,384.53999 484.130003,382.830007 483.55,381.37 C482.969997,379.909993 482.140005,378.790004 481.06,378.01 C479.979995,377.229996 478.710007,376.84 477.25,376.84 C475.049989,376.84 473.305006,377.704991 472.015,379.435 C470.724994,381.165009 470.08,383.519985 470.08,386.5 C470.08,389.480015 470.724994,391.834991 472.015,393.565 C473.305006,395.295009 475.049989,396.16 477.25,396.16 Z M514.66,376.3 C514.159997,376.3 513.730002,376.474998 513.37,376.825 C513.009998,377.175002 512.82,377.599997 512.8,378.1 L512.8,393.58 C512.8,394.920007 512.889999,396.049995 513.07,396.97 L513.16,397.42 L512.89,397.42 L497.74,382.99 L497.74,394.9 C497.74,395.400003 497.919998,395.824998 498.28,396.175 C498.640002,396.525002 499.069997,396.7 499.57,396.7 L500.14,396.7 L500.14,397 L491.05,397 L491.05,396.7 L491.59,396.7 C492.110003,396.7 492.549998,396.525002 492.91,396.175 C493.270002,395.824998 493.45,395.390003 493.45,394.87 L493.45,379.3 C493.45,377.979993 493.360001,376.880004 493.18,376 L493.12,375.55 L493.39,375.55 L508.54,389.98 L508.54,378.13 C508.52,377.609997 508.330002,377.175002 507.97,376.825 C507.609998,376.474998 507.180002,376.3 506.68,376.3 L506.14,376.3 L506.14,376 L515.23,376 L515.23,376.3 L514.66,376.3 Z M241.9,408.98 C242.820005,408.739999 243.569997,408.62 244.15,408.62 C244.730003,408.62 245.189998,408.64 245.53,408.68 L245.53,408.98 C242.909987,409.120001 240.810008,410.319989 239.23,412.58 C238.409996,413.740006 237.750002,415.089992 237.25,416.63 L231.61,434.21 C231.269998,435.310005 231.1,436.329995 231.1,437.27 L231.1,437.54 L230.8,437.54 L224.29,423.08 L218.95,435.77 C218.409997,437.090007 217.620005,438.369994 216.58,439.61 C215.459994,440.930007 214.100008,441.799998 212.5,442.22 C212.119998,442.340001 211.720002,442.4 211.3,442.4 C210.879998,442.4 210.430002,442.330001 209.95,442.19 L209.98,441.89 C210.720004,441.85 211.434997,441.650002 212.125,441.29 C212.815003,440.929998 213.419997,440.495003 213.94,439.985 C214.460003,439.474997 214.959998,438.880003 215.44,438.2 C216.220004,437.099994 216.879997,435.900007 217.42,434.6 L211.33,418.04 C211.069999,417.459997 210.700002,417.025001 210.22,416.735 C209.739998,416.444999 209.250002,416.3 208.75,416.3 L208.51,416.3 L208.51,416 L217.66,416 L217.66,416.3 L217.39,416.3 C216.969998,416.3 216.655001,416.434999 216.445,416.705 C216.234999,416.975001 216.13,417.229999 216.13,417.47 C216.13,417.710001 216.17,417.939999 216.25,418.16 L219.94,428.57 L225.37,415.52 L225.64,415.55 L231.61,428.72 L235.06,416.63 C235.560002,414.889991 236.349995,413.350007 237.43,412.01 C238.690006,410.429992 240.179991,409.420002 241.9,408.98 Z M239.95,436.7 C240.470003,436.7 240.914998,436.515002 241.285,436.145 C241.655002,435.774998 241.85,435.330003 241.87,434.81 L241.87,418.1 C241.81,417.399996 241.480003,416.880002 240.88,416.54 C240.579998,416.379999 240.270002,416.3 239.95,416.3 L239.56,416.3 L239.56,416 L251.05,416 C251.670003,416 252.349996,415.940001 253.09,415.82 C253.830004,415.699999 254.349998,415.580001 254.65,415.46 L254.65,420.71 L254.35,420.71 L254.35,420.35 C254.35,419.449995 254.085003,418.725003 253.555,418.175 C253.024997,417.624997 252.310004,417.33 251.41,417.29 L246.37,417.29 L246.37,426.02 L250.33,426.02 C251.070004,426 251.679998,425.745002 252.16,425.255 C252.640002,424.764998 252.88,424.160004 252.88,423.44 L252.88,423.17 L253.18,423.17 L253.18,430.1 L252.88,430.1 L252.88,429.86 C252.88,428.859995 252.480004,428.120002 251.68,427.64 C251.279998,427.419999 250.840002,427.3 250.36,427.28 L246.37,427.28 L246.37,435.71 L250.3,435.71 C251.760007,435.71 252.984995,435.290004 253.975,434.45 C254.965005,433.609996 255.699998,432.420008 256.18,430.88 L256.48,430.88 L255.1,437 L239.56,437 L239.56,436.7 L239.95,436.7 Z M267.88,437 L258.37,437 L258.37,436.7 L258.76,436.7 C259.280003,436.7 259.724998,436.520002 260.095,436.16 C260.465002,435.799998 260.66,435.360003 260.68,434.84 L260.68,418.16 C260.66,417.639997 260.465002,417.200002 260.095,416.84 C259.724998,416.479998 259.280003,416.3 258.76,416.3 L258.37,416.3 L258.37,416 L267.07,416 C269.390012,416 271.234993,416.419996 272.605,417.26 C273.975007,418.100004 274.67,419.389991 274.69,421.13 C274.67,422.010004 274.480002,422.779997 274.12,423.44 C273.459997,424.680006 272.420007,425.389999 271,425.57 C272.540008,425.710001 273.809995,426.284995 274.81,427.295 C275.810005,428.305005 276.31,429.589992 276.31,431.15 C276.31,433.030009 275.555008,434.474995 274.045,435.485 C272.534992,436.495005 270.480013,437 267.88,437 Z M269.89,421.52 C269.87,418.699986 268.590013,417.29 266.05,417.29 L265.18,417.29 L265.18,435.62 L266.62,435.62 C268.000007,435.62 269.099996,435.220004 269.92,434.42 C270.740004,433.619996 271.15,432.410008 271.15,430.79 C271.15,429.649994 270.920002,428.710004 270.46,427.97 C269.599996,426.589993 268.18001,425.9 266.2,425.9 L266.2,425.63 C267.240005,425.63 268.109996,425.295003 268.81,424.625 C269.510003,423.954997 269.87,422.920007 269.89,421.52 Z M291.01,415.97 L292.87,415.97 C293.770004,415.97 295.439988,415.98 297.88,416 C301.420018,416.04 304.21999,416.994991 306.28,418.865 C308.34001,420.735009 309.37,423.284984 309.37,426.515 C309.37,429.745016 308.34001,432.299991 306.28,434.18 C304.21999,436.060009 301.420018,437 297.88,437 L286.99,437 L286.99,436.7 L287.38,436.7 C287.880002,436.7 288.314998,436.525002 288.685,436.175 C289.055002,435.824998 289.26,435.400003 289.3,434.9 L289.3,417.35 C287.059989,417.510001 285.400005,418.029996 284.32,418.91 C283.779997,419.330002 283.355002,419.759998 283.045,420.2 C282.734998,420.640002 282.430001,421.169997 282.13,421.79 L281.83,421.67 C282.310002,419.66999 283.314992,418.225004 284.845,417.335 C286.375008,416.444996 288.429987,415.99 291.01,415.97 Z M297.52,435.74 C299.660011,435.74 301.354994,434.910008 302.605,433.25 C303.855006,431.589992 304.48,429.340014 304.48,426.5 C304.48,423.659986 303.855006,421.420008 302.605,419.78 C301.354994,418.139992 299.68001,417.32 297.58,417.32 L293.8,417.32 L293.8,435.74 L297.52,435.74 Z M311.71,436.7 C312.230003,436.7 312.674998,436.515002 313.045,436.145 C313.415002,435.774998 313.61,435.330003 313.63,434.81 L313.63,418.1 C313.57,417.399996 313.240003,416.880002 312.64,416.54 C312.339998,416.379999 312.030002,416.3 311.71,416.3 L311.32,416.3 L311.32,416 L322.81,416 C323.430003,416 324.109996,415.940001 324.85,415.82 C325.590004,415.699999 326.109998,415.580001 326.41,415.46 L326.41,420.71 L326.11,420.71 L326.11,420.35 C326.11,419.449995 325.845003,418.725003 325.315,418.175 C324.784997,417.624997 324.070004,417.33 323.17,417.29 L318.13,417.29 L318.13,426.02 L322.09,426.02 C322.830004,426 323.439998,425.745002 323.92,425.255 C324.400002,424.764998 324.64,424.160004 324.64,423.44 L324.64,423.17 L324.94,423.17 L324.94,430.1 L324.64,430.1 L324.64,429.86 C324.64,428.859995 324.240004,428.120002 323.44,427.64 C323.039998,427.419999 322.600002,427.3 322.12,427.28 L318.13,427.28 L318.13,435.71 L322.06,435.71 C323.520007,435.71 324.744995,435.290004 325.735,434.45 C326.725005,433.609996 327.459998,432.420008 327.94,430.88 L328.24,430.88 L326.86,437 L311.32,437 L311.32,436.7 L311.71,436.7 Z M351.7,416.3 L351.43,416.3 C350.969998,416.3 350.510002,416.439999 350.05,416.72 C349.589998,417.000001 349.210001,417.419997 348.91,417.98 L341.8,433.67 C340.879995,435.65001 340.39,436.959997 340.33,437.6 L340.06,437.6 L330.97,418.01 C330.669998,417.449997 330.290002,417.025001 329.83,416.735 C329.369998,416.444999 328.900002,416.3 328.42,416.3 L328.18,416.3 L328.18,416 L337.72,416 L337.72,416.3 L337.48,416.3 C337.039998,416.3 336.715001,416.434999 336.505,416.705 C336.294999,416.975001 336.19,417.229999 336.19,417.47 C336.19,417.710001 336.23,417.949999 336.31,418.19 L341.41,430.58 L346.69,418.19 C346.79,417.929999 346.84,417.685001 346.84,417.455 C346.84,417.224999 346.735001,416.975001 346.525,416.705 C346.314999,416.434999 345.990002,416.3 345.55,416.3 L345.28,416.3 L345.28,416 L351.7,416 L351.7,416.3 Z M352.45,436.7 C352.970003,436.7 353.414998,436.515002 353.785,436.145 C354.155002,435.774998 354.35,435.330003 354.37,434.81 L354.37,418.1 C354.31,417.399996 353.980003,416.880002 353.38,416.54 C353.079998,416.379999 352.770002,416.3 352.45,416.3 L352.06,416.3 L352.06,416 L363.55,416 C364.170003,416 364.849996,415.940001 365.59,415.82 C366.330004,415.699999 366.849998,415.580001 367.15,415.46 L367.15,420.71 L366.85,420.71 L366.85,420.35 C366.85,419.449995 366.585003,418.725003 366.055,418.175 C365.524997,417.624997 364.810004,417.33 363.91,417.29 L358.87,417.29 L358.87,426.02 L362.83,426.02 C363.570004,426 364.179998,425.745002 364.66,425.255 C365.140002,424.764998 365.38,424.160004 365.38,423.44 L365.38,423.17 L365.68,423.17 L365.68,430.1 L365.38,430.1 L365.38,429.86 C365.38,428.859995 364.980004,428.120002 364.18,427.64 C363.779998,427.419999 363.340002,427.3 362.86,427.28 L358.87,427.28 L358.87,435.71 L362.8,435.71 C364.260007,435.71 365.484995,435.290004 366.475,434.45 C367.465005,433.609996 368.199998,432.420008 368.68,430.88 L368.98,430.88 L367.6,437 L352.06,437 L352.06,436.7 L352.45,436.7 Z M371.26,436.7 C371.780003,436.7 372.224998,436.515002 372.595,436.145 C372.965002,435.774998 373.16,435.330003 373.18,434.81 L373.18,418.19 C373.16,417.669997 372.965002,417.225002 372.595,416.855 C372.224998,416.484998 371.780003,416.3 371.26,416.3 L370.87,416.3 L370.87,416 L379.99,416 L379.96,416.3 L379.6,416.3 C379.079997,416.3 378.630002,416.484998 378.25,416.855 C377.869998,417.225002 377.68,417.669997 377.68,418.19 L377.68,435.71 L381.61,435.71 C383.070007,435.71 384.294995,435.290004 385.285,434.45 C386.275005,433.609996 387.009998,432.420008 387.49,430.88 L387.79,430.88 L386.41,437 L370.87,437 L370.87,436.7 L371.26,436.7 Z M401.05,415.58 C404.750018,415.58 407.689989,416.55999 409.87,418.52 C412.050011,420.48001 413.14,423.139983 413.14,426.5 C413.14,429.860017 412.050011,432.51999 409.87,434.48 C407.689989,436.44001 404.750018,437.42 401.05,437.42 C397.349981,437.42 394.410011,436.44001 392.23,434.48 C390.049989,432.51999 388.96,429.860017 388.96,426.5 C388.96,424.279989 389.454995,422.345008 390.445,420.695 C391.435005,419.044992 392.839991,417.780004 394.66,416.9 C396.480009,416.019996 398.609988,415.58 401.05,415.58 Z M401.05,436.16 C403.250011,436.16 404.994994,435.295009 406.285,433.565 C407.575006,431.834991 408.22,429.480015 408.22,426.5 C408.22,424.53999 407.930003,422.830007 407.35,421.37 C406.769997,419.909993 405.940005,418.790004 404.86,418.01 C403.779995,417.229996 402.510007,416.84 401.05,416.84 C398.849989,416.84 397.105006,417.704991 395.815,419.435 C394.524994,421.165009 393.88,423.519985 393.88,426.5 C393.88,429.480015 394.524994,431.834991 395.815,433.565 C397.105006,435.295009 398.849989,436.16 401.05,436.16 Z M431.89,424.61 C431.209997,426.170008 429.950009,427.249997 428.11,427.85 C427.569997,428.030001 427.070002,428.12 426.61,428.12 C425.189993,428.12 423.920006,427.750004 422.8,427.01 L422.8,426.71 C424.300007,426.75 425.509995,426.260005 426.43,425.24 C427.250004,424.359996 427.66,423.210007 427.66,421.79 C427.66,419.609989 426.900008,418.200003 425.38,417.56 C424.899998,417.359999 424.370003,417.26 423.79,417.26 L421.78,417.26 L421.78,434.81 C421.78,435.330003 421.969998,435.774998 422.35,436.145 C422.730002,436.515002 423.179997,436.7 423.7,436.7 L424.09,436.7 L424.09,437 L414.97,437 L414.97,436.7 L415.36,436.7 C415.880003,436.7 416.324998,436.515002 416.695,436.145 C417.065002,435.774998 417.26,435.330003 417.28,434.81 L417.28,418.04 C417.2,417.359997 416.860003,416.860002 416.26,416.54 C415.979999,416.379999 415.680002,416.3 415.36,416.3 L414.97,416.3 L414.97,416 L424.99,416 C428.610018,416 430.929995,417.149989 431.95,419.45 C432.270002,420.210004 432.43,421.054995 432.43,421.985 C432.43,422.915005 432.250002,423.789996 431.89,424.61 Z M434.86,436.7 C435.380003,436.7 435.824998,436.515002 436.195,436.145 C436.565002,435.774998 436.76,435.330003 436.78,434.81 L436.78,418.1 C436.72,417.399996 436.390003,416.880002 435.79,416.54 C435.489998,416.379999 435.180002,416.3 434.86,416.3 L434.47,416.3 L434.47,416 L445.96,416 C446.580003,416 447.259996,415.940001 448,415.82 C448.740004,415.699999 449.259998,415.580001 449.56,415.46 L449.56,420.71 L449.26,420.71 L449.26,420.35 C449.26,419.449995 448.995003,418.725003 448.465,418.175 C447.934997,417.624997 447.220004,417.33 446.32,417.29 L441.28,417.29 L441.28,426.02 L445.24,426.02 C445.980004,426 446.589998,425.745002 447.07,425.255 C447.550002,424.764998 447.79,424.160004 447.79,423.44 L447.79,423.17 L448.09,423.17 L448.09,430.1 L447.79,430.1 L447.79,429.86 C447.79,428.859995 447.390004,428.120002 446.59,427.64 C446.189998,427.419999 445.750002,427.3 445.27,427.28 L441.28,427.28 L441.28,435.71 L445.21,435.71 C446.670007,435.71 447.894995,435.290004 448.885,434.45 C449.875005,433.609996 450.609998,432.420008 451.09,430.88 L451.39,430.88 L450.01,437 L434.47,437 L434.47,436.7 L434.86,436.7 Z M462.46,417.32 L460.18,417.32 L460.18,434.81 C460.2,435.550004 460.519997,436.099998 461.14,436.46 C461.440001,436.620001 461.759998,436.7 462.1,436.7 L462.49,436.7 L462.49,437 L453.37,437 L453.37,436.7 L453.76,436.7 C454.480004,436.7 455.029998,436.390003 455.41,435.77 C455.570001,435.489999 455.66,435.180002 455.68,434.84 L455.68,418.19 C455.66,417.669997 455.465002,417.225002 455.095,416.855 C454.724998,416.484998 454.280003,416.3 453.76,416.3 L453.37,416.3 L453.37,416 L463.66,416 C465.60001,416 467.239993,416.419996 468.58,417.26 C469.260003,417.680002 469.799998,418.264996 470.2,419.015 C470.600002,419.765004 470.8,420.614995 470.8,421.565 C470.8,422.515005 470.635002,423.389996 470.305,424.19 C469.974998,424.990004 469.425004,425.689997 468.655,426.29 C467.884996,426.890003 466.960005,427.249999 465.88,427.37 C467.040006,427.750002 468.059996,428.629993 468.94,430.01 C471.100011,433.470017 472.699995,435.529997 473.74,436.19 C474.260003,436.510002 474.909996,436.68 475.69,436.7 L475.69,437 L472.75,437 C471.049991,437 469.630006,436.765002 468.49,436.295 C467.349994,435.824998 466.420004,435.020006 465.7,433.88 C465.339998,433.299997 464.880003,432.425006 464.32,431.255 C463.759997,430.084994 463.390001,429.250002 463.21,428.75 C462.669997,427.549994 461.990004,426.880001 461.17,426.74 L461.17,426.44 L462.1,426.44 C463.000004,426.44 463.794997,426.170003 464.485,425.63 C465.175003,425.089997 465.639999,424.210006 465.88,422.99 C465.96,422.569998 466,422.240001 466,422 C466,420.359992 465.670003,419.175004 465.01,418.445 C464.349997,417.714996 463.500005,417.34 462.46,417.32 Z" id="Alexander-Morton-Web"></path>
        </g>
    </g>
</svg>


