<?xml version="1.0" encoding="iso-8859-1"?>
<!-- Generator: Adobe Illustrator 18.0.0, SVG Export Plug-In . SVG Version: 6.00 Build 0)  -->
<!DOCTYPE svg PUBLIC "-//W3C//DTD SVG 1.1//EN" "http://www.w3.org/Graphics/SVG/1.1/DTD/svg11.dtd">
<svg version="1.1" id="Capa_1" xmlns="http://www.w3.org/2000/svg" xmlns:xlink="http://www.w3.org/1999/xlink" x="0px" y="0px"
	 viewBox="0 0 455.203 455.203" style="enable-background:new 0 0 455.203 455.203;" xml:space="preserve">
<g id="XMLID_924_">
	<path id="XMLID_925_" d="M204.183,92.709c9.019-8.773,22.943-11.286,34.823-5.095c8.081-6.423,13.267-16.331,13.267-27.455
		c0-19.364-15.698-35.062-35.062-35.062c-19.364,0-35.062,15.698-35.062,35.062C182.151,74.917,191.273,87.537,204.183,92.709z"/>
	<path id="XMLID_979_" d="M261.6,243.023l-24.686,10.56c-15.229,6.514-32.863-0.547-39.381-15.784
		c-1.11-2.596-1.817-5.262-2.166-7.93c-8.689,0.894-17.151-2.031-23.376-7.759L172,434.902c0,11.212,9.089,20.301,20.301,20.301
		s20.301-9.089,20.301-20.301V277.14c0-2.488,2.017-4.505,4.505-4.505c2.353,0,4.26,1.907,4.26,4.26v158.007
		c0,11.212,9.089,20.301,20.301,20.301s20.301-9.089,20.301-20.301L261.6,243.023z"/>
	<path id="XMLID_980_" d="M195.242,216.691c5.854-1.033,10.737-5.064,12.86-10.618l32.815-85.833
		c3.336-8.727-1.033-18.507-9.76-21.843c-8.729-3.335-18.507,1.034-21.843,9.761l-22.577,59.053
		c-7-8.52-13.606-16.865-17.305-22.206l14.321-0.659l12.626-33.834c-9.52,0-14.807,0-24.458,0c-12.615,0-24.48,6.289-31.17,15.93
		c-6.184,8.909-7.566,19.812-3.794,29.909c3.477,9.318,36.09,47.306,42.567,54.77C183.458,215.654,189.449,217.717,195.242,216.691z
		"/>
	<path id="XMLID_984_" d="M302.515,150.323c0-0.009-0.001-0.017-0.001-0.026c-0.137-21.943-18.085-39.786-40.033-39.786h-7.592
		c0.589,4.72,0.066,9.647-1.751,14.4c-3.062,8.01-22.754,59.517-25.811,67.513l34.274-14.661v-27.003
		c0-1.913,1.519-3.481,3.431-3.542s3.53,1.407,3.649,3.317l0,0.002c0.221,34.763,0.104,16.335,0.243,38.322
		c-5.953,2.546-45.343,19.396-50.462,21.586c-8.673,3.709-12.518,13.752-8.901,22.207c3.678,8.599,13.628,12.573,22.208,8.9
		l60.797-26.006c6.262-2.678,10.307-8.851,10.264-15.661l-0.157-24.769L302.515,150.323z"/>
	<path id="XMLID_985_" d="M299.135,0c-7.98,0-15.476,3.469-19.541,10.071c-0.931,1.511-0.519,3.487,0.936,4.503l5.616,3.926
		c1.264,0.883,3.009,0.573,3.889-0.699c1.754-2.532,4.955-4.9,8.5-4.9c3.773,0,7.9,2.27,7.9,7c0,7.961-12.724,10.961-16.9,15.4
		c-2.432,2.584-3.418,5.451-3.759,9.046c-0.156,1.645,1.138,3.054,2.774,3.054h7.901c1.224,0,2.303-0.795,2.664-1.965
		c0.183-0.594,0.457-1.139,0.821-1.635c4.618-6.305,20.4-7.138,20.4-23.801C320.335,7.441,311.341,0,299.135,0z"/>
	<circle id="XMLID_986_" cx="292.591" cy="61.159" r="7.125"/>
</g>
<g>
</g>
<g>
</g>
<g>
</g>
<g>
</g>
<g>
</g>
<g>
</g>
<g>
</g>
<g>
</g>
<g>
</g>
<g>
</g>
<g>
</g>
<g>
</g>
<g>
</g>
<g>
</g>
<g>
</g>
</svg>
