<?xml version="1.0" encoding="UTF-8"?>
<svg width="51px" height="315px" viewBox="0 0 51 315" version="1.1" xmlns="http://www.w3.org/2000/svg" xmlns:xlink="http://www.w3.org/1999/xlink">
    <!-- Generator: Sketch 44.1 (41455) - http://www.bohemiancoding.com/sketch -->
    <title>Group</title>
    <desc>Created with Sketch.</desc>
    <defs></defs>
    <g id="Welcome" stroke="none" stroke-width="1" fill="none" fill-rule="evenodd">
        <g id="background" transform="translate(-132.000000, -218.000000)">
            <g id="Group" transform="translate(129.000000, 199.000000)">
                <rect id="Rectangle-4" x="0" y="0" width="61" height="339"></rect>
                <rect id="Rectangle-4" x="0" y="0" width="61" height="339"></rect>
                <path d="M9.1185567,29.4030612 C9.98683943,29.4030612 10.6907216,27.0799673 10.6907216,24.2142857 C10.6907216,21.3486041 9.98683943,19.0255102 9.1185567,19.0255102 C8.25027398,19.0255102 7.54639175,21.3486041 7.54639175,24.2142857 C7.54639175,27.0799673 8.25027398,29.4030612 9.1185567,29.4030612 Z M16.6649485,83.0204082 C17.5332312,83.0204082 18.2371134,80.6973142 18.2371134,77.8316327 C18.2371134,74.9659511 17.5332312,72.6428571 16.6649485,72.6428571 C15.7966657,72.6428571 15.0927835,74.9659511 15.0927835,77.8316327 C15.0927835,80.6973142 15.7966657,83.0204082 16.6649485,83.0204082 Z" id="Oval" fill-opacity="0.473109149" fill="#1000FF"></path>
                <ellipse id="Oval" fill-opacity="0.473109149" fill="#1000FF" cx="21.6958763" cy="57.0765306" rx="1.57216495" ry="5.18877551"></ellipse>
                <ellipse id="Oval" fill-opacity="0.473109149" fill="#1000FF" cx="30.5" cy="57.0765306" rx="1.57216495" ry="5.18877551"></ellipse>
                <ellipse id="Oval" fill-opacity="0.473109149" fill="#1000FF" cx="33.6443299" cy="41.5102041" rx="1.57216495" ry="5.18877551"></ellipse>
                <ellipse id="Oval" fill-opacity="0.473109149" fill="#1000FF" cx="48.7371134" cy="46.6989796" rx="1.57216495" ry="5.18877551"></ellipse>
                <ellipse id="Oval" fill-opacity="0.473109149" fill="#1000FF" cx="48.7371134" cy="24.2142857" rx="1.57216495" ry="5.18877551"></ellipse>
                <ellipse id="Oval" fill-opacity="0.473109149" fill="#1000FF" cx="41.1907216" cy="24.2142857" rx="1.57216495" ry="5.18877551"></ellipse>
                <ellipse id="Oval" fill-opacity="0.473109149" fill="#1000FF" cx="19.8092784" cy="24.2142857" rx="1.57216495" ry="5.18877551"></ellipse>
                <ellipse id="Oval" fill-opacity="0.473109149" fill="#1000FF" cx="48.7371134" cy="88.2091837" rx="1.57216495" ry="5.18877551"></ellipse>
                <ellipse id="Oval" fill-opacity="0.473109149" fill="#1000FF" cx="43.0773196" cy="51.8877551" rx="1.57216495" ry="5.18877551"></ellipse>
                <ellipse id="Oval" fill-opacity="0.473109149" fill="#1000FF" cx="26.0979381" cy="93.3979592" rx="1.57216495" ry="5.18877551"></ellipse>
                <ellipse id="Oval" fill-opacity="0.473109149" fill="#1000FF" cx="41.8195876" cy="98.5867347" rx="1.57216495" ry="5.18877551"></ellipse>
                <ellipse id="Oval" fill-opacity="0.473109149" fill="#1000FF" cx="29.242268" cy="103.77551" rx="1.57216495" ry="5.18877551"></ellipse>
                <ellipse id="Oval" fill-opacity="0.473109149" fill="#1000FF" cx="24.2113402" cy="83.0204082" rx="1.57216495" ry="5.18877551"></ellipse>
                <ellipse id="Oval" fill-opacity="0.473109149" fill="#1000FF" cx="18.5515464" cy="93.3979592" rx="1.57216495" ry="5.18877551"></ellipse>
                <ellipse id="Oval" fill-opacity="0.473109149" fill="#1000FF" cx="9.74742268" cy="134.908163" rx="1.57216495" ry="5.18877551"></ellipse>
                <ellipse id="Oval" fill-opacity="0.473109149" fill="#1000FF" cx="18.5515464" cy="124.530612" rx="1.57216495" ry="5.18877551"></ellipse>
                <ellipse id="Oval" fill-opacity="0.473109149" fill="#1000FF" cx="24.8402062" cy="129.719388" rx="1.57216495" ry="5.18877551"></ellipse>
                <ellipse id="Oval" fill-opacity="0.473109149" fill="#1000FF" cx="9.74742268" cy="119.341837" rx="1.57216495" ry="5.18877551"></ellipse>
                <ellipse id="Oval" fill-opacity="0.473109149" fill="#1000FF" cx="31.128866" cy="129.719388" rx="1.57216495" ry="5.18877551"></ellipse>
                <ellipse id="Oval" fill-opacity="0.473109149" fill="#1000FF" cx="17.2938144" cy="178.147959" rx="1.57216495" ry="5.18877551"></ellipse>
                <ellipse id="Oval" fill-opacity="0.473109149" fill="#1000FF" cx="30.5" cy="160.852041" rx="1.57216495" ry="5.18877551"></ellipse>
                <ellipse id="Oval" fill-opacity="0.473109149" fill="#1000FF" cx="8.48969072" cy="204.091837" rx="1.57216495" ry="5.18877551"></ellipse>
                <ellipse id="Oval" fill-opacity="0.473109149" fill="#1000FF" cx="41.1907216" cy="114.153061" rx="1.57216495" ry="5.18877551"></ellipse>
                <ellipse id="Oval" fill-opacity="0.473109149" fill="#1000FF" cx="37.4175258" cy="140.096939" rx="1.57216495" ry="5.18877551"></ellipse>
                <ellipse id="Oval" fill-opacity="0.473109149" fill="#1000FF" cx="39.9329897" cy="188.52551" rx="1.57216495" ry="5.18877551"></ellipse>
                <ellipse id="Oval" fill-opacity="0.473109149" fill="#1000FF" cx="27.3556701" cy="193.714286" rx="1.57216495" ry="5.18877551"></ellipse>
                <ellipse id="Oval" fill-opacity="0.473109149" fill="#1000FF" cx="51.8814433" cy="198.903061" rx="1.57216495" ry="5.18877551"></ellipse>
                <ellipse id="Oval" fill-opacity="0.473109149" fill="#1000FF" cx="45.5927835" cy="193.714286" rx="1.57216495" ry="5.18877551"></ellipse>
                <ellipse id="Oval" fill-opacity="0.473109149" fill="#1000FF" cx="36.7886598" cy="255.979592" rx="1.57216495" ry="5.18877551"></ellipse>
                <ellipse id="Oval" fill-opacity="0.473109149" fill="#1000FF" cx="29.871134" cy="250.790816" rx="1.57216495" ry="5.18877551"></ellipse>
                <ellipse id="Oval" fill-opacity="0.473109149" fill="#1000FF" cx="20.4381443" cy="250.790816" rx="1.57216495" ry="5.18877551"></ellipse>
                <ellipse id="Oval" fill-opacity="0.473109149" fill="#1000FF" cx="27.9845361" cy="209.280612" rx="1.57216495" ry="5.18877551"></ellipse>
                <ellipse id="Oval" fill-opacity="0.473109149" fill="#1000FF" cx="21.0670103" cy="198.903061" rx="1.57216495" ry="5.18877551"></ellipse>
                <ellipse id="Oval" fill-opacity="0.473109149" fill="#1000FF" cx="29.242268" cy="174.688776" rx="1.57216495" ry="5.18877551"></ellipse>
                <ellipse id="Oval" fill-opacity="0.473109149" fill="#1000FF" cx="33.6443299" cy="198.903061" rx="1.57216495" ry="5.18877551"></ellipse>
                <ellipse id="Oval" fill-opacity="0.473109149" fill="#1000FF" cx="44.3350515" cy="261.168367" rx="1.57216495" ry="5.18877551"></ellipse>
                <ellipse id="Oval" fill-opacity="0.473109149" fill="#1000FF" cx="24.2113402" cy="255.979592" rx="1.57216495" ry="5.18877551"></ellipse>
                <ellipse id="Oval" fill-opacity="0.473109149" fill="#1000FF" cx="12.8917526" cy="313.056122" rx="1.57216495" ry="5.18877551"></ellipse>
                <ellipse id="Oval" fill-opacity="0.473109149" fill="#1000FF" cx="46.2216495" cy="328.622449" rx="1.57216495" ry="5.18877551"></ellipse>
                <ellipse id="Oval" fill-opacity="0.473109149" fill="#1000FF" cx="50.6237113" cy="323.433673" rx="1.57216495" ry="5.18877551"></ellipse>
                <ellipse id="Oval" fill-opacity="0.473109149" fill="#1000FF" cx="38.6752577" cy="328.622449" rx="1.57216495" ry="5.18877551"></ellipse>
                <ellipse id="Oval" fill-opacity="0.473109149" fill="#1000FF" cx="12.8917526" cy="323.433673" rx="1.57216495" ry="5.18877551"></ellipse>
                <ellipse id="Oval" fill-opacity="0.473109149" fill="#1000FF" cx="5.34536082" cy="328.622449" rx="1.57216495" ry="5.18877551"></ellipse>
                <ellipse id="Oval" fill-opacity="0.473109149" fill="#1000FF" cx="22.3247423" cy="328.622449" rx="1.57216495" ry="5.18877551"></ellipse>
                <ellipse id="Oval" fill-opacity="0.473109149" fill="#1000FF" cx="31.128866" cy="328.622449" rx="1.57216495" ry="5.18877551"></ellipse>
                <ellipse id="Oval" fill-opacity="0.473109149" fill="#1000FF" cx="42.4484536" cy="318.244898" rx="1.57216495" ry="5.18877551"></ellipse>
                <ellipse id="Oval" fill-opacity="0.473109149" fill="#1000FF" cx="50.6237113" cy="271.545918" rx="1.57216495" ry="5.18877551"></ellipse>
                <ellipse id="Oval" fill-opacity="0.473109149" fill="#1000FF" cx="48.7371134" cy="313.056122" rx="1.57216495" ry="5.18877551"></ellipse>
                <ellipse id="Oval" fill-opacity="0.473109149" fill="#1000FF" cx="33.0154639" cy="313.056122" rx="1.57216495" ry="5.18877551"></ellipse>
                <ellipse id="Oval" fill-opacity="0.473109149" fill="#1000FF" cx="5.9742268" cy="307.867347" rx="1.57216495" ry="5.18877551"></ellipse>
                <ellipse id="Oval" fill-opacity="0.473109149" fill="#1000FF" cx="26.0979381" cy="297.489796" rx="1.57216495" ry="5.18877551"></ellipse>
                <ellipse id="Oval" fill-opacity="0.473109149" fill="#1000FF" cx="40.5618557" cy="302.678571" rx="1.57216495" ry="5.18877551"></ellipse>
                <ellipse id="Oval" fill-opacity="0.473109149" fill="#1000FF" cx="19.8092784" cy="307.867347" rx="1.57216495" ry="5.18877551"></ellipse>
                <ellipse id="Oval" fill-opacity="0.473109149" fill="#1000FF" cx="33.0154639" cy="297.489796" rx="1.57216495" ry="5.18877551"></ellipse>
                <ellipse id="Oval" fill-opacity="0.473109149" fill="#1000FF" cx="48.7371134" cy="292.30102" rx="1.57216495" ry="5.18877551"></ellipse>
                <ellipse id="Oval" fill-opacity="0.473109149" fill="#1000FF" cx="12.2628866" cy="297.489796" rx="1.57216495" ry="5.18877551"></ellipse>
                <ellipse id="Oval" fill-opacity="0.473109149" fill="#1000FF" cx="34.2731959" cy="281.923469" rx="1.57216495" ry="5.18877551"></ellipse>
                <ellipse id="Oval" fill-opacity="0.473109149" fill="#1000FF" cx="18.5515464" cy="287.112245" rx="1.57216495" ry="5.18877551"></ellipse>
                <ellipse id="Oval" fill-opacity="0.473109149" fill="#1000FF" cx="8.48969072" cy="266.357143" rx="1.57216495" ry="5.18877551"></ellipse>
                <ellipse id="Oval" fill-opacity="0.473109149" fill="#1000FF" cx="11.6340206" cy="276.734694" rx="1.57216495" ry="5.18877551"></ellipse>
                <ellipse id="Oval" fill-opacity="0.473109149" fill="#1000FF" cx="43.7061856" cy="276.734694" rx="1.57216495" ry="5.18877551"></ellipse>
                <ellipse id="Oval" fill-opacity="0.473109149" fill="#1000FF" cx="37.4175258" cy="271.545918" rx="1.57216495" ry="5.18877551"></ellipse>
                <ellipse id="Oval" fill-opacity="0.473109149" fill="#1000FF" cx="29.242268" cy="266.357143" rx="1.57216495" ry="5.18877551"></ellipse>
                <ellipse id="Oval" fill-opacity="0.473109149" fill="#1000FF" cx="22.9536082" cy="276.734694" rx="1.57216495" ry="5.18877551"></ellipse>
                <ellipse id="Oval" fill-opacity="0.473109149" fill="#1000FF" cx="12.2628866" cy="255.979592" rx="1.57216495" ry="5.18877551"></ellipse>
                <ellipse id="Oval" fill-opacity="0.473109149" fill="#1000FF" cx="36.7886598" cy="261.168367" rx="1.57216495" ry="5.18877551"></ellipse>
                <ellipse id="Oval" fill-opacity="0.473109149" fill="#1000FF" cx="14.7783505" cy="271.545918" rx="1.57216495" ry="5.18877551"></ellipse>
                <ellipse id="Oval" fill-opacity="0.473109149" fill="#1000FF" cx="29.242268" cy="235.22449" rx="1.57216495" ry="5.18877551"></ellipse>
                <ellipse id="Oval" fill-opacity="0.473109149" fill="#1000FF" cx="14.7783505" cy="250.790816" rx="1.57216495" ry="5.18877551"></ellipse>
                <ellipse id="Oval" fill-opacity="0.473109149" fill="#1000FF" cx="38.0463918" cy="240.413265" rx="1.57216495" ry="5.18877551"></ellipse>
                <ellipse id="Oval" fill-opacity="0.473109149" fill="#1000FF" cx="22.9536082" cy="230.035714" rx="1.57216495" ry="5.18877551"></ellipse>
                <ellipse id="Oval" fill-opacity="0.473109149" fill="#1000FF" cx="47.4793814" cy="240.413265" rx="1.57216495" ry="5.18877551"></ellipse>
                <ellipse id="Oval" fill-opacity="0.473109149" fill="#1000FF" cx="11.6340206" cy="235.22449" rx="1.57216495" ry="5.18877551"></ellipse>
                <ellipse id="Oval" fill-opacity="0.473109149" fill="#1000FF" cx="36.1597938" cy="224.846939" rx="1.57216495" ry="5.18877551"></ellipse>
                <ellipse id="Oval" fill-opacity="0.473109149" fill="#1000FF" cx="24.8402062" cy="209.280612" rx="1.57216495" ry="5.18877551"></ellipse>
                <ellipse id="Oval" fill-opacity="0.473109149" fill="#1000FF" cx="18.5515464" cy="204.091837" rx="1.57216495" ry="5.18877551"></ellipse>
                <ellipse id="Oval" fill-opacity="0.473109149" fill="#1000FF" cx="44.3350515" cy="214.469388" rx="1.57216495" ry="5.18877551"></ellipse>
                <ellipse id="Oval" fill-opacity="0.473109149" fill="#1000FF" cx="17.2938144" cy="224.846939" rx="1.57216495" ry="5.18877551"></ellipse>
                <ellipse id="Oval" fill-opacity="0.473109149" fill="#1000FF" cx="9.1185567" cy="224.846939" rx="1.57216495" ry="5.18877551"></ellipse>
                <ellipse id="Oval" fill-opacity="0.473109149" fill="#1000FF" cx="39.3041237" cy="204.091837" rx="1.57216495" ry="5.18877551"></ellipse>
                <ellipse id="Oval" fill-opacity="0.473109149" fill="#1000FF" cx="15.4072165" cy="193.714286" rx="1.57216495" ry="5.18877551"></ellipse>
                <ellipse id="Oval" fill-opacity="0.473109149" fill="#1000FF" cx="45.5927835" cy="183.336735" rx="1.57216495" ry="5.18877551"></ellipse>
                <ellipse id="Oval" fill-opacity="0.473109149" fill="#1000FF" cx="11.6340206" cy="183.336735" rx="1.57216495" ry="5.18877551"></ellipse>
                <ellipse id="Oval" fill-opacity="0.473109149" fill="#1000FF" cx="34.2731959" cy="178.147959" rx="1.57216495" ry="5.18877551"></ellipse>
                <ellipse id="Oval" fill-opacity="0.473109149" fill="#1000FF" cx="22.9536082" cy="178.147959" rx="1.57216495" ry="5.18877551"></ellipse>
                <ellipse id="Oval" fill-opacity="0.473109149" fill="#1000FF" cx="11.6340206" cy="167.770408" rx="1.57216495" ry="5.18877551"></ellipse>
                <ellipse id="Oval" fill-opacity="0.473109149" fill="#1000FF" cx="24.2113402" cy="150.47449" rx="1.57216495" ry="5.18877551"></ellipse>
                <ellipse id="Oval" fill-opacity="0.473109149" fill="#1000FF" cx="29.242268" cy="145.285714" rx="1.57216495" ry="5.18877551"></ellipse>
                <ellipse id="Oval" fill-opacity="0.473109149" fill="#1000FF" cx="41.8195876" cy="167.770408" rx="1.57216495" ry="5.18877551"></ellipse>
                <ellipse id="Oval" fill-opacity="0.473109149" fill="#1000FF" cx="34.2731959" cy="157.392857" rx="1.57216495" ry="5.18877551"></ellipse>
                <ellipse id="Oval" fill-opacity="0.473109149" fill="#1000FF" cx="19.8092784" cy="157.392857" rx="1.57216495" ry="5.18877551"></ellipse>
                <ellipse id="Oval" fill-opacity="0.473109149" fill="#1000FF" cx="44.3350515" cy="157.392857" rx="1.57216495" ry="5.18877551"></ellipse>
                <ellipse id="Oval" fill-opacity="0.473109149" fill="#1000FF" cx="9.74742268" cy="152.204082" rx="1.57216495" ry="5.18877551"></ellipse>
                <ellipse id="Oval" fill-opacity="0.473109149" fill="#1000FF" cx="16.6649485" cy="136.637755" rx="1.57216495" ry="5.18877551"></ellipse>
                <ellipse id="Oval" fill-opacity="0.473109149" fill="#1000FF" cx="43.0773196" cy="141.826531" rx="1.57216495" ry="5.18877551"></ellipse>
                <ellipse id="Oval" fill-opacity="0.473109149" fill="#1000FF" cx="26.0979381" cy="114.153061" rx="1.57216495" ry="5.18877551"></ellipse>
                <ellipse id="Oval" fill-opacity="0.473109149" fill="#1000FF" cx="45.5927835" cy="114.153061" rx="1.57216495" ry="5.18877551"></ellipse>
                <ellipse id="Oval" fill-opacity="0.473109149" fill="#1000FF" cx="35.5309278" cy="108.964286" rx="1.57216495" ry="5.18877551"></ellipse>
                <ellipse id="Oval" fill-opacity="0.473109149" fill="#1000FF" cx="16.6649485" cy="103.77551" rx="1.57216495" ry="5.18877551"></ellipse>
                <ellipse id="Oval" fill-opacity="0.473109149" fill="#1000FF" cx="26.0979381" cy="36.3214286" rx="1.57216495" ry="5.18877551"></ellipse>
                <ellipse id="Oval" fill-opacity="0.473109149" fill="#1000FF" cx="33.6443299" cy="88.2091837" rx="1.57216495" ry="5.18877551"></ellipse>
                <ellipse id="Oval" fill-opacity="0.473109149" fill="#1000FF" cx="27.3556701" cy="72.6428571" rx="1.57216495" ry="5.18877551"></ellipse>
                <ellipse id="Oval" fill-opacity="0.473109149" fill="#1000FF" cx="12.8917526" cy="93.3979592" rx="1.57216495" ry="5.18877551"></ellipse>
                <ellipse id="Oval" fill-opacity="0.473109149" fill="#1000FF" cx="41.1907216" cy="83.0204082" rx="1.57216495" ry="5.18877551"></ellipse>
                <ellipse id="Oval" fill-opacity="0.473109149" fill="#1000FF" cx="9.74742268" cy="77.8316327" rx="1.57216495" ry="5.18877551"></ellipse>
                <ellipse id="Oval" fill-opacity="0.473109149" fill="#1000FF" cx="36.7886598" cy="62.2653061" rx="1.57216495" ry="5.18877551"></ellipse>
                <ellipse id="Oval" fill-opacity="0.473109149" fill="#1000FF" cx="48.7371134" cy="67.4540816" rx="1.57216495" ry="5.18877551"></ellipse>
                <ellipse id="Oval" fill-opacity="0.473109149" fill="#1000FF" cx="12.8917526" cy="51.8877551" rx="1.57216495" ry="5.18877551"></ellipse>
            </g>
        </g>
    </g>
</svg>