<svg xmlns="http://www.w3.org/2000/svg" x="0px" y="0px"
     width="269px" height="112px" viewBox="0 0 269 112" enable-background="new 0 0 269 112">
    <g stroke="#001FF5" fill="none" stroke-width="1" stroke-linecap="round" stroke-linejoin="round">
        <g id="Mobile" fill="#001FF5">
            <g id="Mobile" fill="#ffffff">
                <path d="M71.59,70.41 C70.4499943,69.1099935 69.88,67.5000096 69.88,65.58 C69.88,64.7399958 69.979999,63.7900053 70.18,62.73 C70.380001,61.6699947 70.5899989,60.640005 70.81,59.64 C71.0300011,58.639995 71.1799996,58.0000014 71.26,57.72 C71.5800016,56.319993 71.8799986,54.9400068 72.16,53.58 C72.4400014,52.2199932 72.58,51.1200042 72.58,50.28 C72.58,48.2399898 71.8600072,47.22 70.42,47.22 C69.419995,47.22 68.5300039,47.6999952 67.75,48.66 C66.9699961,49.6200048 66.3400024,50.8599924 65.86,52.38 C64.659994,58.6600314 63.4400062,65.199966 62.2,72 L53.56,72 L61.78,33.72 C60.379993,33.5999994 57.7400194,33.2600028 53.86,32.7 L45.4,72 L36.76,72 L45.34,32.16 C41.539981,32.3200008 38.5800106,33.299991 36.46,35.1 C34.3399894,36.900009 33.28,39.999978 33.28,44.4 C33.28,45.8800074 33.4199986,46.9099971 33.7,47.49 C33.9800014,48.0700029 34.12,48.3999996 34.12,48.48 C31.9599892,48.48 30.3500053,48.0300045 29.29,47.13 C28.2299947,46.2299955 27.7,44.7400104 27.7,42.66 C27.7,39.859986 28.4599924,37.2800118 29.98,34.92 C31.5000076,32.5599882 33.8399842,30.6600072 37,29.22 C40.1600158,27.7799928 44.0999764,27.06 48.82,27.06 C49.620004,27.06 51.319987,27.2399982 53.92,27.6 C58.6800238,28.2800034 62.3799868,28.62 65.02,28.62 C68.4600172,28.62 70.879993,28.1400048 72.28,27.18 C71.679997,28.3000056 71.1900019,29.359995 70.81,30.36 C70.4299981,31.360005 69.9600028,32.9899887 69.4,35.25 C68.8399972,37.5100113 68.1200044,40.839978 67.24,45.24 C69.2800102,42.9199884 71.6599864,41.76 74.38,41.76 C76.4200102,41.76 78.039994,42.3199944 79.24,43.44 C80.440006,44.5600056 81.04,46.2599886 81.04,48.54 C81.04,49.7000058 80.9000014,50.9899929 80.62,52.41 C80.3399986,53.8300071 79.9400026,55.5599898 79.42,57.6 C79.0999984,58.8400062 78.8100013,60.0499941 78.55,61.23 C78.2899987,62.4100059 78.16,63.3399966 78.16,64.02 C78.16,64.820004 78.3399982,65.4399978 78.7,65.88 C79.0600018,66.3200022 79.6799956,66.54 80.56,66.54 C81.760006,66.54 82.7199964,66.1100043 83.44,65.25 C84.1600036,64.3899957 84.8799964,63.060009 85.6,61.26 L88.12,61.26 C86.6399926,65.660022 84.9300097,68.6099925 82.99,70.11 C81.0499903,71.6100075 79.0400104,72.36 76.96,72.36 C74.5199878,72.36 72.7300057,71.7100065 71.59,70.41 Z M87.22,70.05 C85.5799918,68.5099923 84.76,66.1000164 84.76,62.82 C84.76,60.0599862 85.2999946,57.0200166 86.38,53.7 C87.4600054,50.3799834 89.2199878,47.5100121 91.66,45.09 C94.1000122,42.6699879 97.1999812,41.46 100.96,41.46 C105.360022,41.46 107.56,43.3799808 107.56,47.22 C107.56,49.4600112 106.920006,51.5199906 105.64,53.4 C104.359994,55.2800094 102.660011,56.7899943 100.54,57.93 C98.4199894,59.0700057 96.160012,59.7199992 93.76,59.88 C93.6799996,60.7600044 93.64,61.3599984 93.64,61.68 C93.64,65.0000166 94.8799876,66.66 97.36,66.66 C98.4800056,66.66 99.6799936,66.360003 100.96,65.76 C102.240006,65.159997 103.399995,64.4000046 104.44,63.48 C103.359995,69.4000296 99.9000292,72.36 94.06,72.36 C91.1399854,72.36 88.8600082,71.5900077 87.22,70.05 Z M98.47,55.5 C99.8100067,54.5399952 100.889996,53.3100075 101.71,51.81 C102.530004,50.3099925 102.94,48.7400082 102.94,47.1 C102.94,45.4599918 102.440005,44.64 101.44,44.64 C100.039993,44.64 98.6500069,45.9099873 97.27,48.45 C95.8899931,50.9900127 94.8600034,53.8399842 94.18,57 C95.7000076,56.9599998 97.1299933,56.4600048 98.47,55.5 Z M128.62,71.76 C126.69999,70.8799956 125.220005,69.6500079 124.18,68.07 C123.139995,66.4899921 122.62,64.6600104 122.62,62.58 C122.62,60.8199912 122.989996,59.2200072 123.73,57.78 C124.470004,56.3399928 125.469994,55.2000042 126.73,54.36 C127.990006,53.5199958 129.379992,53.1 130.9,53.1 C132.300007,53.1 133.479995,53.4499965 134.44,54.15 C135.400005,54.8500035 135.999999,55.8199938 136.24,57.06 C134.15999,57.06 132.500006,57.6099945 131.26,58.71 C130.019994,59.8100055 129.4,61.2999906 129.4,63.18 C129.4,64.9000086 129.919995,66.2799948 130.96,67.32 C132.000005,68.3600052 133.379991,68.88 135.1,68.88 C137.220011,68.88 138.969993,68.1700071 140.35,66.75 C141.730007,65.3299929 142.42,63.5400108 142.42,61.38 C142.42,59.4999906 141.900005,57.7200084 140.86,56.04 C139.819995,54.3599916 138.26001,52.320012 136.18,49.92 C134.019989,47.4399876 132.390006,45.3100089 131.29,43.53 C130.189995,41.7499911 129.64,39.8000106 129.64,37.68 C129.64,35.5999896 130.219994,33.7300083 131.38,32.07 C132.540006,30.4099917 134.13999,29.1000048 136.18,28.14 C138.22001,27.1799952 140.519987,26.7 143.08,26.7 C146.320016,26.7 148.90999,27.4599924 150.85,28.98 C152.79001,30.5000076 153.76,32.5399872 153.76,35.1 C153.76,36.7800084 153.340004,38.1399948 152.5,39.18 C151.659996,40.2200052 150.560007,40.74 149.2,40.74 C147.679992,40.74 146.460005,40.1200062 145.54,38.88 C146.300004,38.3199972 146.899998,37.5800046 147.34,36.66 C147.780002,35.7399954 148,34.780005 148,33.78 C148,32.4999936 147.620004,31.4800038 146.86,30.72 C146.099996,29.9599962 145.060007,29.58 143.74,29.58 C142.139992,29.58 140.830005,30.1499943 139.81,31.29 C138.789995,32.4300057 138.28,33.8799912 138.28,35.64 C138.28,37.240008 138.739995,38.7299931 139.66,40.11 C140.580005,41.4900069 142.01999,43.2599892 143.98,45.42 C145.580008,47.1400086 146.869995,48.6199938 147.85,49.86 C148.830005,51.1000062 149.669996,52.5299919 150.37,54.15 C151.070003,55.7700081 151.42,57.5199906 151.42,59.4 C151.42,61.9600128 150.710007,64.2799896 149.29,66.36 C147.869993,68.4400104 145.930012,70.079994 143.47,71.28 C141.009988,72.480006 138.280015,73.08 135.28,73.08 C132.759987,73.08 130.54001,72.6400044 128.62,71.76 Z M156.07,70.56 C154.889994,69.359994 154.3,67.560012 154.3,65.16 C154.3,64.159995 154.459998,62.860008 154.78,61.26 L158.38,44.4 L156.4,44.4 L156.88,42 L158.86,42 L160.66,33.72 L169.54,32.52 L167.5,42 L171.1,42 L170.62,44.4 L167.02,44.4 L163.18,62.4 C163.019999,63.000003 162.94,63.6399966 162.94,64.32 C162.94,65.120004 163.129998,65.6899983 163.51,66.03 C163.890002,66.3700017 164.519996,66.54 165.4,66.54 C166.560006,66.54 167.639995,66.0500049 168.64,65.07 C169.640005,64.0899951 170.359998,62.8200078 170.8,61.26 L173.32,61.26 C171.839993,65.5800216 169.940012,68.5099923 167.62,70.05 C165.299988,71.5900077 163.000011,72.36 160.72,72.36 C158.79999,72.36 157.250006,71.760006 156.07,70.56 Z M172.54,69.96 C170.819991,68.4399924 169.96,66.0400164 169.96,62.76 C169.96,60.0399864 170.519994,57.0200166 171.64,53.7 C172.760006,50.3799834 174.559988,47.5100121 177.04,45.09 C179.520012,42.6699879 182.639981,41.46 186.4,41.46 C191.520026,41.46 194.08,44.659968 194.08,51.06 L194.08,51.12 C194.200001,51.1600002 194.419998,51.18 194.74,51.18 C196.060007,51.18 197.579991,50.8300035 199.3,50.13 C201.020009,49.4299965 202.579993,48.580005 203.98,47.58 L204.52,49.2 C203.359994,50.4400062 201.850009,51.4899957 199.99,52.35 C198.129991,53.2100043 196.100011,53.8199982 193.9,54.18 C193.579998,57.8200182 192.760007,60.9999864 191.44,63.72 C190.119993,66.4400136 188.42001,68.5399926 186.34,70.02 C184.25999,71.5000074 182.000012,72.24 179.56,72.24 C176.599985,72.24 174.260009,71.4800076 172.54,69.96 Z M184.84,65.19 C185.800005,64.0899945 186.639996,62.5900095 187.36,60.69 C188.080004,58.7899905 188.599998,56.6800116 188.92,54.36 C187.839995,54.1199988 187.3,53.2800072 187.3,51.84 C187.3,50.1999918 187.919994,49.1200026 189.16,48.6 C189.08,47.2799934 188.880002,46.3700025 188.56,45.87 C188.239998,45.3699975 187.680004,45.12 186.88,45.12 C185.559993,45.12 184.280006,46.0799904 183.04,48 C181.799994,49.9200096 180.800004,52.2199866 180.04,54.9 C179.279996,57.5800134 178.9,59.9399898 178.9,61.98 C178.9,63.9000096 179.119998,65.1899967 179.56,65.85 C180.000002,66.5100033 180.799994,66.84 181.96,66.84 C182.920005,66.84 183.879995,66.2900055 184.84,65.19 Z M201.22,42 L209.86,42 L209.08,45.72 C210.440007,44.519994 211.669994,43.6000032 212.77,42.96 C213.870005,42.3199968 215.059994,42 216.34,42 C217.620006,42 218.629996,42.4399956 219.37,43.32 C220.110004,44.2000044 220.48,45.2599938 220.48,46.5 C220.48,47.6600058 220.100004,48.6799956 219.34,49.56 C218.579996,50.4400044 217.520007,50.88 216.16,50.88 C215.279996,50.88 214.690001,50.6700021 214.39,50.25 C214.089999,49.8299979 213.860001,49.220004 213.7,48.42 C213.579999,47.8999974 213.460001,47.5200012 213.34,47.28 C213.219999,47.0399988 213.000002,46.92 212.68,46.92 C211.839996,46.92 211.130003,47.0899983 210.55,47.43 C209.969997,47.7700017 209.220005,48.3599958 208.3,49.2 L203.5,72 L194.86,72 L201.22,42 Z M221.32,70.05 C219.679992,68.5099923 218.86,66.1000164 218.86,62.82 C218.86,60.0599862 219.399995,57.0200166 220.48,53.7 C221.560005,50.3799834 223.319988,47.5100121 225.76,45.09 C228.200012,42.6699879 231.299981,41.46 235.06,41.46 C239.460022,41.46 241.66,43.3799808 241.66,47.22 C241.66,49.4600112 241.020006,51.5199906 239.74,53.4 C238.459994,55.2800094 236.760011,56.7899943 234.64,57.93 C232.519989,59.0700057 230.260012,59.7199992 227.86,59.88 C227.78,60.7600044 227.74,61.3599984 227.74,61.68 C227.74,65.0000166 228.979988,66.66 231.46,66.66 C232.580006,66.66 233.779994,66.360003 235.06,65.76 C236.340006,65.159997 237.499995,64.4000046 238.54,63.48 C237.459995,69.4000296 234.000029,72.36 228.16,72.36 C225.239985,72.36 222.960008,71.5900077 221.32,70.05 Z M232.57,55.5 C233.910007,54.5399952 234.989996,53.3100075 235.81,51.81 C236.630004,50.3099925 237.04,48.7400082 237.04,47.1 C237.04,45.4599918 236.540005,44.64 235.54,44.64 C234.139993,44.64 232.750007,45.9099873 231.37,48.45 C229.989993,50.9900127 228.960003,53.8399842 228.28,57 C229.800008,56.9599998 231.229993,56.4600048 232.57,55.5 Z" id="The-Store"></path>
            </g>
        </g>
    </g>
</svg>
