<?xml version="1.0" encoding="UTF-8"?>
<svg width="153px" height="73px" viewBox="0 0 153 73" version="1.1" xmlns="http://www.w3.org/2000/svg" xmlns:xlink="http://www.w3.org/1999/xlink">
    <!-- Generator: Sketch 44.1 (41455) - http://www.bohemiancoding.com/sketch -->
    <title>wind</title>
    <desc>Created with Sketch.</desc>
    <defs></defs>
    <g id="Welcome" stroke="none" stroke-width="1" fill="none" fill-rule="evenodd">
        <g id="splash" transform="translate(0.000000, -16.000000)" stroke="#979797">
            <g id="wind" transform="translate(76.500000, 53.000000) scale(-1, 1) translate(-76.500000, -53.000000) translate(0.000000, 17.000000)">
                <path d="M0.767779807,71.2916834 C30.7558254,71.076132 105.10463,72.7729187 133.643305,56.2509397 C136.714626,54.472851 139.586307,52.0194166 141.423249,48.9829294 C160.047551,18.1967336 155.440897,4.72877985 121.162228,1.14600984 C114.74422,0.475206502 108.120704,-0.511197933 101.806103,0.817939926 C85.7521628,4.19707624 68.5409382,34.7442216 88.6977268,44.5882346 C93.7322329,47.0469469 110.666044,45.0042332 112.935244,44.8766477" id="Path-21"></path>
                <path d="M2.54152044,59.9065759 C40.030185,61.717233 82.2128054,63.9039179 119.727372,56.3482792 C131.903821,53.8958759 144.924064,43.9425308 145.262748,30.5821729 C145.39739,25.2708439 147.806332,18.7077238 144.354247,14.6689796 C140.341606,9.97441587 132.838072,9.9104126 126.743021,8.915138 C122.847246,8.27898813 104.588808,4.57631643 97.6457436,10.674458 C79.5551555,26.5635459 91.6378199,47.8575836 114.892848,41.5815279" id="Path-20"></path>
                <path d="M3.18323961,51.8093778 C29.7285993,52.5781577 84.5179481,57.0122954 115.732851,50.3240503 C129.998145,47.2675043 136.673409,45.7515245 138.48504,34.0755767 C138.85889,31.6661149 139.286978,29.0633425 138.48504,26.7606992 C136.101405,19.9164485 125.410691,16.0546395 120.145571,14.9285514 C79.9367934,6.32881637 96.7047123,47.9553584 120.682741,32.7885332" id="Path-19"></path>
            </g>
        </g>
    </g>
</svg>